# Blender 5.2.0 LTS
# www.blender.org
o Сюзанна
v 0.282820 0.429361 -0.401039
v 0.188320 0.435571 -0.456359
v -0.170336 0.155678 -0.572189
v 0.136334 0.508710 -0.315084
v 0.190062 0.523043 -0.421130
v 0.379396 0.094228 -0.150463
v 0.422586 0.067713 -0.209899
v 0.360132 0.242960 -0.299542
v 0.364022 0.291229 -0.312315
v 0.314226 0.272610 -0.270232
v 0.178907 0.412295 -0.227369
v 0.272004 0.380249 -0.302924
v 0.075652 0.361683 -0.193292
v -0.034892 0.413077 -0.575498
v -0.016633 0.000000 -0.437059
v 0.238751 0.101099 -0.324123
v 0.381584 0.024723 -0.219732
v 0.221672 0.142111 -0.275911
v 0.305394 0.056486 -0.143743
v 0.240066 0.212508 -0.272009
v 0.032694 0.404034 -0.285937
v -0.131516 0.386302 -0.370148
v -0.166424 0.201713 -0.341824
v 0.032623 0.127082 -0.279864
v -0.191957 0.220568 -0.101254
v -0.247349 0.332147 -0.185572
v -0.075927 0.215889 -0.239852
v -0.063421 0.152813 -0.200946
v -0.160813 0.276032 -0.266573
v 0.290682 0.423980 -0.588261
v 0.239061 0.496145 -0.507853
v 0.452895 0.053880 -0.280547
v 0.365675 0.244367 -0.361290
v 0.360204 0.312771 -0.548243
v 0.343052 0.341246 -0.428672
v 0.318198 0.228536 -0.622569
v 0.278021 0.111178 -0.375643
v 0.408292 -0.000001 -0.325861
v 0.308665 0.174850 -0.393421
v 0.231141 0.295095 -0.637164
v 0.069380 0.276018 -0.725712
v 0.027123 0.095464 -0.684379
v 0.167370 0.053112 -0.518351
v 0.209836 -0.000000 -0.812380
v 0.139744 0.119649 -0.870682
v 0.161719 0.085431 -0.660457
v 0.184025 0.016975 -0.638896
v 0.108682 0.128090 -0.743549
v -1.000000 -0.000000 1.000000
v -1.000000 2.000000 1.000000
v -1.000000 0.000000 -1.000000
v -1.000000 2.000000 -1.000000
v 1.000000 0.000000 1.000000
v 1.000000 2.000000 1.000000
v 1.000000 0.000000 -1.000000
v 1.000000 2.000000 -1.000000
v -0.171707 0.000008 0.400641
v -0.171708 0.300007 0.400634
v -0.248648 0.000001 0.110675
v -0.248648 0.300000 0.110668
v 0.118258 0.000007 0.323701
v 0.118258 0.300006 0.323694
v 0.041318 -0.000001 0.033735
v 0.041317 0.299999 0.033728
v -0.131696 0.327783 0.617349
v -0.065499 0.382386 0.635273
v 0.016699 0.380467 0.604864
v 0.053000 0.323471 0.549021
v 0.016069 0.254318 0.509793
v -0.066284 0.225080 0.516722
v -0.132045 0.257776 0.564588
v -0.017000 0.193516 0.746068
v 0.036860 0.262562 0.750145
v 0.091332 0.293098 0.688623
v 0.105400 0.262129 0.607828
v 0.068470 0.192976 0.568601
v 0.008350 0.137712 0.600480
v -0.029688 0.137953 0.679461
v 0.170790 0.083186 0.763775
v 0.204447 0.164101 0.765948
v 0.213529 0.221305 0.700145
v 0.191195 0.211723 0.615918
v 0.154265 0.142569 0.576690
v 0.130547 0.065919 0.612003
v 0.137901 0.039490 0.695263
v 0.359945 0.038934 0.663706
v 0.373254 0.124609 0.676643
v 0.336613 0.192510 0.635029
v 0.277614 0.191506 0.570199
v 0.240683 0.122352 0.530972
v 0.253631 0.037124 0.546887
v 0.306707 -0.000001 0.605959
v 0.478213 0.077664 0.484083
v 0.478799 0.159173 0.516344
v 0.413571 0.217712 0.518147
v 0.331647 0.209200 0.488136
v 0.294716 0.140047 0.448909
v 0.330590 0.062326 0.430005
v 0.412253 0.034563 0.445659
v 0.480421 0.184582 0.293518
v 0.480770 0.254589 0.346278
v 0.415008 0.287284 0.394145
v 0.332655 0.258047 0.401073
v 0.295725 0.188894 0.361846
v 0.332026 0.131898 0.306002
v 0.414224 0.129979 0.275594
v 0.365725 0.318849 0.164799
v 0.378412 0.374413 0.231406
v 0.340374 0.374653 0.310386
v 0.280254 0.319389 0.342266
v 0.243324 0.250236 0.303039
v 0.257392 0.219267 0.222244
v 0.311866 0.249803 0.160721
v 0.177934 0.429180 0.147092
v 0.210824 0.472875 0.215604
v 0.218178 0.446446 0.298864
v 0.194460 0.369796 0.334176
v 0.157529 0.300642 0.294949
v 0.135196 0.291060 0.210722
v 0.144277 0.348264 0.144919
v -0.011220 0.473431 0.247161
v 0.042017 0.512366 0.304908
v 0.095093 0.475241 0.363980
v 0.108041 0.390013 0.379894
v 0.071111 0.320859 0.340667
v 0.012111 0.319855 0.275838
v -0.024530 0.387756 0.234224
v -0.129488 0.434701 0.426783
v -0.063529 0.477802 0.465207
v 0.018135 0.450039 0.480862
v 0.054008 0.372318 0.461958
v 0.017078 0.303165 0.422730
v -0.064847 0.294653 0.392719
v -0.130075 0.353192 0.394522
v 0.413609 0.055860 -0.210124
v 0.404726 0.042356 -0.208943
v 0.393848 0.030259 -0.211006
v 0.386436 0.070886 -0.159321
v 0.385203 0.050981 -0.176425
v 0.381479 0.035979 -0.197452
v 0.390175 0.091420 -0.164348
v 0.395783 0.090198 -0.188081
v 0.406203 0.082719 -0.209323
v 0.364172 0.031870 -0.199797
v 0.345451 0.033262 -0.176700
v 0.324978 0.038834 -0.155493
v 0.362409 0.084361 -0.141776
v 0.344105 0.073937 -0.136253
v 0.324588 0.064067 -0.136235
v 0.385936 0.140109 -0.177352
v 0.383398 0.174089 -0.221282
v 0.373996 0.204604 -0.266559
v 0.406972 0.111525 -0.232310
v 0.391359 0.155336 -0.254720
v 0.375745 0.199148 -0.277131
v 0.347109 0.252861 -0.301187
v 0.335482 0.261198 -0.290998
v 0.325661 0.267174 -0.278002
v 0.368567 0.145879 -0.169666
v 0.349630 0.187423 -0.205919
v 0.329443 0.226353 -0.244098
v 0.361104 0.255027 -0.302735
v 0.362077 0.267095 -0.305928
v 0.363050 0.279162 -0.309122
v 0.351259 0.279780 -0.307611
v 0.338379 0.275815 -0.294856
v 0.326617 0.275352 -0.280770
v 0.295255 0.409912 -0.382466
v 0.306055 0.397695 -0.352382
v 0.300645 0.387717 -0.319465
v 0.342996 0.315036 -0.323095
v 0.319364 0.338692 -0.322372
v 0.295498 0.360410 -0.314182
v 0.303121 0.394828 -0.378858
v 0.323421 0.360295 -0.356677
v 0.343722 0.325762 -0.334496
v 0.192989 0.459904 -0.457070
v 0.192481 0.484774 -0.452482
v 0.190305 0.507140 -0.440697
v 0.259195 0.430913 -0.414869
v 0.235570 0.432466 -0.428699
v 0.211945 0.434018 -0.442529
v 0.265808 0.455026 -0.415755
v 0.247740 0.484507 -0.424525
v 0.222980 0.510485 -0.426570
v -0.048361 0.370125 -0.533920
v -0.081065 0.371538 -0.475487
v -0.112967 0.389336 -0.420420
v 0.106207 0.418974 -0.464502
v 0.019708 0.424578 -0.437714
v -0.061974 0.423267 -0.398422
v 0.132517 0.429947 -0.486143
v 0.076714 0.424324 -0.515928
v 0.020911 0.418700 -0.545713
v -0.136475 0.220028 -0.573016
v -0.102614 0.284378 -0.573844
v -0.068753 0.348727 -0.574671
v -0.143450 0.224128 -0.545427
v -0.149699 0.289821 -0.492899
v -0.156856 0.345034 -0.429824
v -0.131825 0.154652 -0.520032
v -0.132424 0.160925 -0.454066
v -0.152286 0.175593 -0.393486
v -0.052182 0.055758 -0.423647
v -0.088902 0.112181 -0.409298
v -0.127627 0.163764 -0.384438
v -0.137736 0.116648 -0.533425
v -0.107865 0.076244 -0.490106
v -0.069676 0.035691 -0.453383
v 0.234343 0.111167 -0.312200
v 0.228844 0.119374 -0.298604
v 0.223978 0.128877 -0.285548
v 0.187910 0.115482 -0.319491
v 0.135594 0.117512 -0.304436
v 0.083680 0.117748 -0.288206
v 0.175758 0.142064 -0.288587
v 0.127288 0.134802 -0.285389
v 0.079391 0.127456 -0.278331
v 0.391126 0.016754 -0.244418
v 0.404835 0.012783 -0.270404
v 0.413638 0.008315 -0.298602
v 0.335546 0.022031 -0.173131
v 0.379508 0.017994 -0.218817
v 0.411806 0.019014 -0.273683
v 0.261532 0.100694 -0.282102
v 0.266195 0.082963 -0.230730
v 0.274186 0.062994 -0.180485
v 0.249015 0.122572 -0.248378
v 0.261092 0.098641 -0.208707
v 0.274666 0.074857 -0.169334
v 0.047536 0.027701 -0.412290
v 0.112413 0.057226 -0.389630
v 0.176978 0.083540 -0.362261
v -0.000904 0.038579 -0.405222
v 0.011090 0.069690 -0.364402
v 0.021418 0.097427 -0.320921
v -0.110771 0.198070 -0.335734
v -0.061523 0.174418 -0.316048
v -0.016289 0.146029 -0.294022
v -0.147965 0.346557 -0.351231
v -0.145745 0.297110 -0.331792
v -0.145901 0.243971 -0.324782
v -0.069114 0.202959 -0.227708
v -0.066847 0.186094 -0.218481
v -0.066079 0.168604 -0.210400
v 0.007916 0.140610 -0.264326
v -0.016707 0.146143 -0.244017
v -0.040349 0.148448 -0.222143
v 0.005751 0.148946 -0.268570
v -0.020208 0.172602 -0.258420
v -0.046921 0.195723 -0.248979
v -0.016494 0.162082 -0.270454
v -0.061572 0.204219 -0.266341
v -0.108020 0.245091 -0.265673
v -0.161681 0.220920 -0.325206
v -0.155291 0.245415 -0.311281
v -0.153220 0.267595 -0.292331
v -0.164025 0.199587 -0.128443
v -0.131835 0.182539 -0.153625
v -0.097670 0.167627 -0.177462
v -0.167721 0.215781 -0.139143
v -0.136756 0.217272 -0.172876
v -0.104500 0.219258 -0.205283
v -0.084271 0.187466 -0.214713
v -0.106078 0.221534 -0.229370
v -0.131097 0.252243 -0.246352
v -0.096663 0.231691 -0.246262
v -0.117253 0.247830 -0.252552
v -0.138436 0.263056 -0.259184
v -0.134591 0.349611 -0.326863
v -0.123486 0.300434 -0.297433
v -0.102534 0.252257 -0.272470
v -0.144002 0.359572 -0.345760
v -0.153149 0.326896 -0.324883
v -0.158889 0.295944 -0.300213
v 0.273348 0.092887 -0.165348
v 0.261258 0.129483 -0.208133
v 0.255425 0.167956 -0.250337
v 0.224186 0.159662 -0.270636
v 0.229032 0.177558 -0.269780
v 0.234751 0.195112 -0.271050
v 0.348870 0.138382 -0.164798
v 0.315312 0.165850 -0.205486
v 0.279939 0.185922 -0.248426
v 0.295860 0.258158 -0.263196
v 0.276806 0.242764 -0.263873
v 0.258246 0.227526 -0.268222
v -0.185739 0.233929 -0.142990
v -0.177226 0.249264 -0.183749
v -0.168291 0.264118 -0.224597
v -0.204500 0.249227 -0.122102
v -0.216463 0.278304 -0.142932
v -0.230056 0.306470 -0.164052
v -0.229592 0.313585 -0.206419
v -0.209393 0.297194 -0.226970
v -0.186459 0.284225 -0.247133
v 0.189886 0.188113 -0.272892
v 0.139429 0.161586 -0.268103
v 0.086707 0.138929 -0.267328
v 0.057986 0.297903 -0.190999
v 0.045932 0.234670 -0.206179
v 0.038094 0.176606 -0.236725
v 0.120075 0.323773 -0.196350
v 0.160771 0.287628 -0.227578
v 0.199434 0.251707 -0.261242
v 0.202621 0.364191 -0.228225
v 0.217759 0.314067 -0.245808
v 0.228526 0.263662 -0.265280
v 0.154132 0.402034 -0.213181
v 0.128332 0.390393 -0.202085
v 0.101919 0.376999 -0.195108
v 0.305028 0.298576 -0.281336
v 0.295626 0.324384 -0.296556
v 0.284575 0.352167 -0.306885
v 0.205112 0.408081 -0.243381
v 0.226850 0.401797 -0.265771
v 0.247907 0.392719 -0.287860
v 0.279363 0.306935 -0.262022
v 0.247756 0.343240 -0.247610
v 0.215484 0.379216 -0.233779
v 0.147649 0.517201 -0.341673
v 0.159961 0.525027 -0.368511
v 0.174094 0.528272 -0.395511
v 0.201814 0.477670 -0.434235
v 0.180843 0.503990 -0.395397
v 0.150720 0.510890 -0.355447
v 0.240590 0.459615 -0.413384
v 0.201894 0.493586 -0.393819
v 0.168218 0.514124 -0.355718
v 0.186971 0.508760 -0.296981
v 0.224029 0.467424 -0.288186
v 0.246133 0.416879 -0.290808
v 0.139568 0.496429 -0.280577
v 0.152652 0.472256 -0.255896
v 0.167931 0.442995 -0.240046
v 0.111403 0.483950 -0.277403
v 0.096414 0.450270 -0.240764
v 0.086278 0.408935 -0.210924
v 0.058122 0.378361 -0.208941
v 0.045613 0.388406 -0.233109
v 0.037765 0.395299 -0.259980
v 0.103104 0.491490 -0.307689
v 0.068959 0.471829 -0.300310
v 0.041667 0.442892 -0.292682
v 0.048378 0.317255 -0.195855
v 0.026435 0.257882 -0.206309
v -0.015708 0.210929 -0.223753
v -0.209690 0.296373 -0.199809
v -0.166707 0.266952 -0.213586
v -0.121351 0.241193 -0.226870
v 0.022014 0.349632 -0.288919
v -0.014392 0.296947 -0.298998
v -0.056261 0.247546 -0.288547
v 0.136935 0.395108 -0.443906
v 0.079839 0.389642 -0.404735
v 0.040390 0.400783 -0.349196
v 0.006586 0.403440 -0.326611
v -0.041900 0.404210 -0.344592
v -0.092404 0.400619 -0.352651
v 0.403423 0.018505 -0.233401
v 0.426636 0.024059 -0.246429
v 0.444932 0.037524 -0.261354
v 0.417767 0.076369 -0.229793
v 0.430858 0.070941 -0.250162
v 0.447030 0.060208 -0.264976
v 0.445188 0.038610 -0.292538
v 0.432503 0.025254 -0.303078
v 0.418928 0.012845 -0.313597
v 0.384577 0.198796 -0.285284
v 0.418329 0.154914 -0.283104
v 0.446379 0.106928 -0.284328
v 0.354121 0.249011 -0.313598
v 0.357938 0.248871 -0.330743
v 0.364402 0.245907 -0.346569
v 0.444409 0.104244 -0.303898
v 0.415359 0.151340 -0.322251
v 0.383437 0.196712 -0.339661
v 0.357937 0.276114 -0.319429
v 0.360068 0.263909 -0.333242
v 0.364742 0.254423 -0.348248
v 0.299658 0.407494 -0.390259
v 0.326578 0.386429 -0.388707
v 0.347418 0.362041 -0.402248
v 0.349769 0.311317 -0.335084
v 0.343232 0.325589 -0.364616
v 0.342048 0.334855 -0.396571
v 0.196340 0.458065 -0.463002
v 0.205883 0.477417 -0.476202
v 0.219636 0.491039 -0.492608
v 0.268088 0.453774 -0.419791
v 0.258469 0.478617 -0.443514
v 0.249678 0.495829 -0.473823
v -0.019727 0.354406 -0.584599
v 0.009320 0.321920 -0.635460
v 0.040179 0.305265 -0.691471
v 0.132635 0.404466 -0.511277
v 0.107927 0.376148 -0.593853
v 0.094135 0.337569 -0.674717
v -0.117262 0.209752 -0.591776
v -0.062490 0.241947 -0.647250
v -0.002390 0.260239 -0.703210
v -0.107811 0.141469 -0.562535
v -0.053923 0.117831 -0.593006
v -0.012829 0.099037 -0.640309
v -0.056522 -0.018561 -0.504307
v -0.045776 0.024216 -0.578823
v -0.008049 0.077777 -0.632953
v 0.244336 0.103381 -0.407085
v 0.220745 0.080131 -0.444665
v 0.198132 0.057901 -0.483451
v 0.249724 0.092354 -0.336035
v 0.260347 0.093402 -0.350879
v 0.269425 0.100994 -0.364558
v 0.218483 0.076414 -0.367467
v 0.204396 0.055981 -0.416509
v 0.189342 0.046109 -0.468635
v 0.282972 0.080970 -0.330456
v 0.330499 0.062515 -0.340415
v 0.376130 0.036819 -0.342383
v 0.313510 0.093247 -0.354588
v 0.350799 0.065940 -0.347632
v 0.383993 0.033557 -0.342374
v 0.036947 0.005231 -0.438880
v 0.084299 0.019197 -0.462301
v 0.125531 0.036505 -0.493009
v 0.061356 0.106181 -0.639818
v 0.097645 0.093949 -0.596686
v 0.132759 0.071933 -0.557092
v 0.065612 0.229312 -0.729238
v 0.070106 0.178617 -0.713822
v 0.062458 0.129591 -0.693553
v 0.171952 0.070623 -0.654366
v 0.176386 0.052569 -0.648976
v 0.178928 0.034105 -0.644035
v 0.170349 0.057316 -0.550852
v 0.174449 0.046331 -0.582180
v 0.179039 0.029824 -0.610611
v 0.166091 0.065902 -0.552643
v 0.165904 0.074881 -0.588183
v 0.165038 0.081041 -0.624299
v 0.154706 0.076439 -0.573446
v 0.143939 0.098782 -0.629767
v 0.130131 0.117107 -0.686947
v 0.047750 0.105951 -0.695874
v 0.068439 0.122596 -0.707258
v 0.090198 0.133969 -0.723152
v 0.198266 0.000704 -0.769657
v 0.191610 0.004980 -0.726087
v 0.187642 0.011002 -0.682430
v 0.191705 0.018471 -0.775285
v 0.182141 0.042211 -0.737287
v 0.174467 0.066116 -0.699022
v 0.170170 0.047789 -0.665044
v 0.154934 0.078248 -0.691331
v 0.135247 0.106031 -0.717751
v 0.149131 0.096759 -0.681290
v 0.136803 0.108363 -0.702204
v 0.123651 0.119181 -0.723050
v 0.093164 0.224583 -0.729963
v 0.110578 0.171943 -0.711699
v 0.130079 0.124563 -0.684167
v 0.075378 0.239142 -0.734038
v 0.078933 0.199493 -0.735642
v 0.087813 0.160515 -0.736847
v 0.384936 0.044326 -0.341286
v 0.354058 0.088544 -0.350227
v 0.325037 0.132950 -0.364279
v 0.287959 0.124653 -0.383506
v 0.295733 0.140942 -0.387834
v 0.302206 0.158082 -0.390437
v 0.435627 0.090756 -0.318348
v 0.391525 0.124012 -0.340374
v 0.342797 0.151416 -0.359677
v 0.357632 0.224248 -0.372525
v 0.342820 0.206525 -0.380710
v 0.325387 0.190669 -0.387054
v 0.183237 0.031376 -0.796036
v 0.159168 0.064597 -0.779127
v 0.135140 0.097547 -0.761634
v 0.193404 0.030794 -0.826344
v 0.177407 0.062086 -0.840036
v 0.160058 0.092313 -0.854510
v 0.128252 0.117144 -0.839760
v 0.118873 0.116990 -0.807963
v 0.112153 0.120299 -0.775643
v 0.276928 0.140591 -0.423321
v 0.250024 0.100366 -0.456198
v 0.215810 0.066227 -0.489864
v 0.292842 0.168914 -0.610249
v 0.255861 0.119730 -0.587040
v 0.212594 0.081656 -0.555665
v 0.330754 0.208119 -0.569227
v 0.319212 0.200650 -0.507999
v 0.304664 0.193940 -0.447486
v 0.360626 0.277453 -0.507875
v 0.342486 0.245596 -0.466561
v 0.320370 0.213244 -0.427833
v 0.355390 0.291552 -0.569384
v 0.347205 0.270242 -0.589463
v 0.334959 0.249070 -0.607562
v 0.358190 0.269392 -0.375428
v 0.347270 0.296034 -0.387959
v 0.339837 0.321830 -0.404692
v 0.360761 0.322635 -0.518862
v 0.353263 0.332401 -0.489507
v 0.344939 0.339452 -0.459595
v 0.361591 0.261795 -0.407557
v 0.364737 0.279022 -0.454653
v 0.366974 0.296055 -0.501897
v 0.277768 0.445771 -0.571968
v 0.265038 0.467344 -0.554485
v 0.252044 0.485481 -0.533473
v 0.223814 0.465592 -0.473172
v 0.249827 0.466121 -0.517490
v 0.266894 0.447115 -0.561062
v 0.257275 0.450455 -0.442914
v 0.260065 0.461652 -0.496776
v 0.277084 0.454361 -0.548398
v 0.332942 0.428628 -0.555333
v 0.350070 0.398233 -0.511265
v 0.347595 0.361181 -0.470382
v 0.316965 0.399046 -0.594548
v 0.337865 0.370582 -0.583701
v 0.351660 0.342136 -0.565225
v 0.300948 0.379898 -0.612875
v 0.313631 0.331027 -0.625213
v 0.321654 0.279723 -0.627513
v 0.300212 0.245464 -0.637411
v 0.276538 0.261638 -0.641819
v 0.252483 0.277427 -0.640007
v 0.274081 0.397631 -0.610297
v 0.256360 0.368954 -0.631987
v 0.240303 0.333849 -0.644244
v 0.290179 0.184516 -0.623814
v 0.255085 0.132362 -0.610993
v 0.206399 0.089002 -0.616856
v 0.140191 0.104302 -0.819058
v 0.145502 0.095563 -0.766158
v 0.153414 0.090358 -0.713172
v 0.209427 0.246751 -0.620617
v 0.168349 0.196630 -0.622429
v 0.141478 0.138996 -0.638521
v 0.160036 0.382426 -0.484791
v 0.158613 0.346397 -0.544156
v 0.184057 0.321916 -0.603469
v 0.184189 0.305943 -0.640949
v 0.143410 0.302482 -0.672569
v 0.108364 0.290405 -0.707987
v 0.135615 0.236956 -0.698512
v 0.137765 0.174356 -0.634778
v 0.175592 0.239388 -0.618235
v 0.151458 0.321838 -0.607525
v 0.126322 0.359739 -0.556769
v 0.120558 0.336235 -0.640484
v 0.186383 0.419199 -0.527904
v 0.230958 0.417495 -0.588775
v 0.197230 0.376550 -0.609312
v 0.223655 0.222572 -0.647365
v 0.260399 0.196223 -0.656089
v 0.207439 0.144574 -0.667079
v 0.072456 0.151270 -0.748387
v 0.081422 0.190863 -0.738402
v 0.084978 0.137796 -0.712673
v 0.164470 0.069473 -0.751464
v 0.175059 0.047518 -0.789524
v 0.159427 0.077535 -0.803488
v 0.139693 0.100334 -0.734053
v 0.126575 0.111140 -0.754931
v 0.131576 0.105680 -0.787156
v 0.213243 0.098195 -0.602519
v 0.254371 0.134597 -0.609511
v 0.213019 0.091148 -0.587733
v 0.285540 0.349967 -0.633332
v 0.296495 0.297419 -0.641342
v 0.267571 0.314191 -0.647027
v 0.347701 0.321156 -0.591170
v 0.336745 0.300243 -0.612589
v 0.329528 0.351648 -0.611220
v 0.338615 0.385277 -0.546913
v 0.345055 0.361196 -0.502700
v 0.352931 0.353446 -0.535121
v 0.315433 0.447559 -0.516742
v 0.325713 0.395730 -0.479340
v 0.287742 0.425835 -0.442703
v 0.261518 0.469476 -0.525229
v 0.250339 0.487373 -0.499141
v 0.251172 0.471521 -0.468360
v 0.233975 0.484654 -0.518045
v 0.249580 0.469770 -0.541232
v 0.222261 0.482552 -0.499243
v 0.355574 0.243320 -0.416613
v 0.338684 0.228519 -0.422145
v 0.361808 0.260621 -0.461904
v 0.356400 0.305940 -0.470874
v 0.344005 0.315373 -0.438374
v 0.353155 0.288193 -0.422765
v 0.342914 0.309991 -0.375653
v 0.345563 0.294427 -0.345067
v 0.354983 0.281201 -0.360972
v 0.346201 0.258233 -0.527897
v 0.320898 0.228348 -0.486004
v 0.340481 0.234469 -0.549028
v 0.288920 0.145512 -0.486025
v 0.260475 0.103491 -0.523685
v 0.301610 0.149309 -0.552124
v 0.272914 0.119925 -0.421608
v 0.259442 0.108103 -0.415993
v 0.243181 0.079639 -0.454923
v 0.148204 0.089727 -0.824206
v 0.165642 0.060317 -0.810060
v 0.139939 0.091421 -0.793023
v 0.155840 0.070332 -0.735118
v 0.175835 0.034432 -0.752443
v 0.172415 0.040745 -0.708683
v 0.368470 0.165519 -0.361596
v 0.380472 0.179953 -0.352873
v 0.418838 0.137159 -0.340674
v 0.409645 0.074534 -0.319385
v 0.394871 0.059406 -0.327193
v 0.360416 0.105342 -0.335407
v 0.326429 0.117181 -0.368010
v 0.358733 0.075603 -0.357971
v 0.322247 0.104963 -0.363615
v 0.110277 0.153580 -0.724040
v 0.121208 0.138287 -0.706613
v 0.104620 0.190155 -0.732219
v 0.150711 0.091382 -0.661278
v 0.165810 0.061244 -0.635885
v 0.161278 0.075017 -0.605709
v 0.187770 0.023930 -0.731331
v 0.183545 0.029321 -0.687679
v 0.182199 0.049139 -0.692610
v 0.107992 0.115524 -0.668783
v 0.120514 0.094070 -0.613185
v 0.085408 0.109018 -0.654604
v 0.172271 0.066926 -0.619560
v 0.174600 0.048552 -0.615315
v 0.171625 0.064396 -0.585313
v 0.007746 0.203639 -0.666374
v -0.047954 0.172478 -0.593790
v 0.010445 0.143730 -0.639918
v 0.084980 0.075105 -0.519779
v 0.022098 0.080372 -0.480190
v 0.037052 0.107432 -0.561913
v 0.107520 0.036158 -0.428436
v 0.163567 0.055644 -0.401539
v 0.153758 0.034478 -0.449729
v 0.341672 0.060476 -0.342924
v 0.296959 0.076590 -0.335758
v 0.306551 0.083012 -0.346975
v 0.305212 0.073581 -0.281704
v 0.317683 0.038955 -0.219836
v 0.367669 0.054637 -0.280674
v 0.211708 0.071470 -0.428161
v 0.238121 0.099137 -0.390674
v 0.229487 0.093609 -0.370359
v -0.097049 0.103957 -0.547228
v -0.035870 0.082441 -0.583078
v -0.042799 0.030017 -0.515265
v -0.049543 0.310117 -0.605669
v -0.084534 0.267088 -0.602681
v -0.028632 0.287344 -0.665607
v 0.039206 0.377894 -0.577634
v 0.069282 0.363048 -0.636063
v 0.084579 0.397661 -0.548609
v 0.232176 0.478017 -0.459858
v 0.220031 0.456908 -0.448225
v 0.244398 0.454931 -0.434568
v 0.317154 0.367732 -0.378059
v 0.339338 0.357206 -0.376947
v 0.337912 0.345435 -0.352458
v 0.359582 0.266373 -0.319577
v 0.357173 0.258863 -0.317278
v 0.363616 0.256420 -0.333784
v 0.389487 0.202057 -0.323272
v 0.385260 0.203695 -0.300919
v 0.427359 0.158755 -0.304706
v 0.424593 0.112927 -0.266633
v 0.394938 0.158205 -0.265982
v 0.407405 0.116959 -0.249095
v 0.430269 0.023142 -0.274713
v 0.409705 0.012871 -0.259151
v 0.420330 0.013035 -0.286160
v 0.415264 0.063429 -0.226453
v 0.419302 0.021687 -0.227840
v 0.440378 0.036882 -0.246444
v -0.083117 0.357031 -0.311383
v -0.046555 0.275540 -0.308553
v 0.003520 0.333849 -0.313688
v 0.019238 0.394421 -0.373512
v 0.055347 0.398701 -0.431152
v -0.020470 0.413654 -0.390879
v 0.126084 0.452301 -0.421182
v 0.101534 0.488543 -0.359710
v 0.056485 0.453814 -0.360210
v 0.002483 0.343986 -0.255916
v 0.009163 0.334141 -0.211431
v -0.041470 0.281215 -0.226537
v -0.178821 0.289210 -0.303656
v -0.156124 0.321266 -0.317973
v -0.146772 0.265017 -0.302503
v -0.151023 0.242666 -0.193077
v -0.181033 0.242998 -0.159283
v -0.193329 0.271184 -0.179151
v -0.143083 0.255566 -0.233573
v -0.164276 0.270805 -0.240160
v -0.188609 0.281449 -0.220466
v 0.003336 0.211230 -0.225999
v 0.029123 0.257118 -0.205596
v 0.013678 0.196750 -0.225147
v 0.139850 0.435258 -0.223297
v 0.111557 0.423862 -0.214033
v 0.121418 0.465893 -0.242889
v 0.079202 0.463238 -0.268138
v 0.065809 0.424056 -0.233054
v 0.049546 0.433878 -0.261148
v 0.186073 0.469016 -0.276931
v 0.218942 0.430427 -0.279495
v 0.195462 0.439890 -0.256421
v 0.212856 0.503869 -0.335194
v 0.235524 0.445237 -0.319720
v 0.251385 0.445792 -0.378358
v 0.181913 0.513175 -0.384338
v 0.201036 0.514438 -0.411880
v 0.222142 0.487457 -0.416980
v 0.176288 0.516322 -0.415946
v 0.162657 0.517488 -0.387388
v 0.184348 0.503365 -0.432141
v 0.264255 0.293451 -0.254989
v 0.246902 0.278903 -0.259702
v 0.235803 0.329792 -0.238890
v 0.236896 0.371543 -0.259365
v 0.258374 0.362381 -0.286817
v 0.269128 0.334321 -0.274046
v 0.306516 0.329972 -0.311232
v 0.328534 0.303775 -0.314928
v 0.317732 0.301650 -0.295042
v 0.173959 0.352786 -0.223049
v 0.186115 0.302338 -0.247454
v 0.148065 0.340098 -0.208474
v 0.147990 0.222356 -0.239729
v 0.093961 0.195065 -0.229496
v 0.103778 0.257249 -0.201974
v 0.184312 0.168973 -0.270290
v 0.178802 0.153369 -0.276902
v 0.132388 0.143316 -0.267870
v -0.213011 0.288019 -0.184898
v -0.199428 0.260726 -0.163929
v -0.192233 0.273770 -0.205117
v -0.142498 0.234108 -0.207094
v -0.154243 0.215632 -0.168242
v -0.119622 0.201061 -0.191811
v 0.295992 0.205307 -0.233318
v 0.313118 0.216928 -0.233664
v 0.333321 0.184105 -0.189318
v 0.326892 0.121297 -0.167835
v 0.296918 0.106165 -0.162305
v 0.289983 0.140861 -0.217696
v 0.244677 0.153795 -0.238497
v 0.249421 0.114774 -0.194420
v 0.245503 0.137819 -0.240102
v -0.138051 0.289902 -0.284528
v -0.121924 0.271758 -0.276296
v -0.138629 0.323689 -0.301697
v -0.083224 0.214282 -0.247791
v -0.061230 0.181175 -0.233636
v -0.038522 0.174246 -0.253066
v -0.133438 0.200261 -0.162830
v -0.099573 0.184741 -0.186594
v -0.099341 0.203693 -0.194317
v -0.107315 0.227585 -0.288603
v -0.063847 0.183323 -0.288116
v -0.109239 0.211219 -0.309697
v -0.043271 0.181390 -0.238840
v -0.042635 0.164200 -0.230918
v -0.018047 0.160580 -0.251134
v -0.135899 0.282494 -0.412140
v -0.116242 0.209966 -0.472927
v -0.128131 0.219802 -0.394654
v -0.023936 0.125147 -0.345001
v -0.035857 0.095471 -0.389188
v -0.071909 0.153091 -0.371728
v 0.124912 0.088991 -0.348428
v 0.062048 0.062368 -0.375383
v 0.072606 0.089359 -0.330839
v 0.263308 0.090338 -0.219466
v 0.257365 0.108125 -0.271245
v 0.251942 0.113048 -0.258217
v 0.364259 0.029703 -0.197797
v 0.384036 0.026853 -0.219913
v 0.408068 0.031008 -0.245519
v 0.178074 0.127810 -0.292777
v 0.183041 0.122072 -0.306096
v 0.130582 0.119888 -0.287224
v -0.131584 0.112806 -0.466305
v -0.125651 0.140186 -0.433086
v -0.097099 0.083726 -0.440722
v -0.092516 0.333707 -0.529612
v -0.119993 0.286553 -0.539923
v -0.134528 0.345476 -0.478183
v -0.004634 0.401961 -0.500041
v -0.038448 0.422187 -0.445392
v 0.048338 0.417556 -0.484468
v 0.220110 0.484640 -0.438504
v 0.217504 0.458295 -0.443752
v 0.241293 0.456635 -0.429073
v 0.305160 0.374724 -0.356066
v 0.315212 0.370450 -0.334245
v 0.331064 0.349194 -0.340338
v 0.349632 0.271836 -0.301967
v 0.348286 0.263742 -0.301548
v 0.338040 0.270461 -0.288517
v 0.347172 0.225286 -0.248379
v 0.363103 0.215858 -0.261703
v 0.372061 0.189112 -0.206834
v 0.389591 0.132143 -0.204681
v 0.385044 0.163638 -0.248469
v 0.395156 0.123686 -0.227413
v 0.366226 0.061925 -0.154426
v 0.364463 0.044813 -0.175782
v 0.346168 0.049326 -0.150408
v 0.400766 0.064730 -0.194745
v 0.393309 0.046400 -0.190606
v 0.394315 0.065944 -0.171591
v -0.114987 0.350167 0.628371
v -0.092085 0.368630 0.634249
v -0.105113 0.283562 0.670279
v -0.066316 0.238145 0.713820
v -0.001875 0.217755 0.755312
v 0.016683 0.241304 0.756314
v -0.032971 0.348082 0.680504
v 0.001370 0.307882 0.719044
v -0.036560 0.389201 0.630226
v -0.008564 0.387721 0.619244
v 0.057371 0.279244 0.735639
v 0.075776 0.288990 0.713896
v 0.040883 0.350300 0.632303
v 0.065767 0.321170 0.660230
v 0.037071 0.366622 0.587228
v 0.048826 0.346539 0.567917
v 0.102455 0.290081 0.660606
v 0.106721 0.278765 0.632890
v 0.065125 0.300832 0.570775
v 0.082791 0.280152 0.590601
v 0.049340 0.298871 0.531727
v 0.036579 0.274975 0.518172
v 0.098584 0.241225 0.586991
v 0.085822 0.217330 0.573436
v 0.030736 0.236438 0.534247
v 0.048402 0.215758 0.554073
v -0.009080 0.238109 0.506410
v -0.037291 0.227377 0.508242
v 0.048815 0.170335 0.571384
v 0.028093 0.150836 0.581620
v -0.040978 0.197013 0.545351
v -0.016094 0.167883 0.573278
v -0.092823 0.229945 0.529746
v -0.116005 0.240437 0.545840
v -0.008483 0.131214 0.624398
v -0.022076 0.130480 0.651254
v -0.105317 0.212614 0.603660
v -0.070976 0.172413 0.642200
v -0.139951 0.303421 0.601854
v -0.139666 0.279534 0.583709
v -0.026839 0.171009 0.728795
v -0.030899 0.152207 0.705775
v 0.040679 0.151626 0.765614
v 0.104201 0.114305 0.771604
v 0.183321 0.108948 0.772774
v 0.194765 0.136677 0.773106
v 0.093723 0.233202 0.763750
v 0.149949 0.200169 0.769052
v 0.211159 0.188890 0.750141
v 0.213864 0.207860 0.726917
v 0.131447 0.268059 0.692024
v 0.172190 0.244122 0.695866
v 0.209507 0.227186 0.670700
v 0.201512 0.223074 0.641828
v 0.131009 0.241162 0.613942
v 0.159933 0.224168 0.616669
v 0.179209 0.193856 0.594593
v 0.166448 0.169960 0.581038
v 0.096620 0.176767 0.577414
v 0.125544 0.159774 0.580142
v 0.143606 0.114644 0.580322
v 0.135145 0.087941 0.591714
v 0.049587 0.114772 0.605072
v 0.090330 0.090835 0.608914
v 0.129606 0.050083 0.637419
v 0.131714 0.040126 0.665755
v 0.021377 0.097734 0.686906
v 0.077603 0.064700 0.692208
v 0.158357 0.062202 0.746258
v 0.147184 0.047580 0.722566
v 0.237534 0.059626 0.742470
v 0.301518 0.044658 0.708621
v 0.369863 0.065308 0.674087
v 0.374142 0.094712 0.678209
v 0.265036 0.152972 0.743905
v 0.321670 0.139723 0.713944
v 0.366066 0.152650 0.668189
v 0.352957 0.175320 0.653332
v 0.254038 0.210557 0.677982
v 0.295077 0.200956 0.656271
v 0.317337 0.201960 0.613655
v 0.296992 0.200737 0.591316
v 0.220020 0.199527 0.603540
v 0.249154 0.192711 0.588127
v 0.260421 0.174857 0.551630
v 0.247659 0.150962 0.538075
v 0.185631 0.135132 0.567012
v 0.214765 0.128317 0.551600
v 0.239086 0.092307 0.529810
v 0.242975 0.062715 0.534668
v 0.172177 0.057270 0.591030
v 0.213217 0.047669 0.569319
v 0.268698 0.017544 0.563834
v 0.286621 0.003886 0.583804
v 0.192690 0.017504 0.667061
v 0.249325 0.004254 0.637100
v 0.344899 0.018561 0.647570
v 0.326561 0.005615 0.627670
v 0.410260 0.042705 0.609688
v 0.450266 0.055805 0.548929
v 0.486498 0.103503 0.496946
v 0.486296 0.131441 0.507872
v 0.415531 0.138037 0.628550
v 0.450941 0.149633 0.574770
v 0.462921 0.184368 0.521089
v 0.439924 0.203800 0.521250
v 0.361830 0.199757 0.595540
v 0.387489 0.208160 0.556569
v 0.384757 0.224039 0.511259
v 0.356690 0.220287 0.500648
v 0.298159 0.191831 0.543542
v 0.316375 0.197796 0.515877
v 0.311197 0.191486 0.474511
v 0.298436 0.167590 0.460956
v 0.263770 0.127436 0.507015
v 0.281986 0.133402 0.479349
v 0.298784 0.111857 0.439142
v 0.310395 0.084793 0.432272
v 0.279969 0.046470 0.508588
v 0.305629 0.054873 0.469618
v 0.355665 0.046023 0.431752
v 0.383476 0.035604 0.436703
v 0.343186 0.002569 0.551706
v 0.378596 0.014165 0.497925
v 0.461534 0.056756 0.470429
v 0.438715 0.042344 0.457333
v 0.492880 0.107324 0.417986
v 0.493627 0.143491 0.353525
v 0.488675 0.208944 0.309013
v 0.488390 0.232832 0.327158
v 0.487724 0.194102 0.461746
v 0.488386 0.226114 0.404689
v 0.464730 0.271928 0.365027
v 0.441547 0.282420 0.381120
v 0.413649 0.239785 0.476188
v 0.414128 0.262982 0.434843
v 0.386016 0.284988 0.402625
v 0.357804 0.274256 0.404456
v 0.335580 0.221013 0.456867
v 0.335920 0.237481 0.427515
v 0.312145 0.237390 0.392694
v 0.299384 0.213494 0.379139
v 0.301191 0.156619 0.420339
v 0.301531 0.173087 0.390988
v 0.299899 0.165826 0.342950
v 0.311654 0.145743 0.323638
v 0.331788 0.086498 0.389237
v 0.332267 0.109695 0.347892
v 0.357289 0.124644 0.291622
v 0.385284 0.123164 0.280641
v 0.415379 0.058633 0.384901
v 0.416040 0.090645 0.327845
v 0.463711 0.162198 0.282496
v 0.440809 0.143735 0.276618
v 0.453838 0.228803 0.240588
v 0.415041 0.274220 0.197047
v 0.375564 0.341356 0.182072
v 0.379623 0.360158 0.205092
v 0.454041 0.299751 0.307206
v 0.419701 0.339952 0.268667
v 0.370800 0.381885 0.259613
v 0.357207 0.381151 0.286468
v 0.389703 0.315351 0.365515
v 0.364818 0.344482 0.337588
v 0.320632 0.361529 0.329247
v 0.299909 0.342030 0.339483
v 0.317989 0.275927 0.376619
v 0.300323 0.296608 0.356794
v 0.262902 0.295036 0.337430
v 0.250141 0.271140 0.323875
v 0.283600 0.211533 0.340092
v 0.265934 0.232213 0.320266
v 0.242004 0.233600 0.277976
v 0.246270 0.222284 0.250260
v 0.307842 0.162065 0.278564
v 0.282958 0.191195 0.250637
v 0.272949 0.223375 0.196970
v 0.291355 0.233121 0.175227
v 0.381696 0.164283 0.230362
v 0.347355 0.204483 0.191823
v 0.350599 0.294610 0.155555
v 0.332042 0.271061 0.154553
v 0.308045 0.360739 0.145253
v 0.244523 0.398060 0.139263
v 0.190367 0.450163 0.164609
v 0.201540 0.464785 0.188301
v 0.327347 0.414631 0.223961
v 0.271121 0.447665 0.218659
v 0.217011 0.472239 0.245112
v 0.219118 0.462282 0.273448
v 0.299138 0.397593 0.305794
v 0.258395 0.421530 0.301953
v 0.213580 0.424424 0.319153
v 0.205118 0.397721 0.330545
v 0.252105 0.335598 0.333452
v 0.223181 0.352591 0.330725
v 0.182277 0.342405 0.329828
v 0.169515 0.318509 0.316273
v 0.217716 0.271204 0.296925
v 0.188792 0.288197 0.294198
v 0.147213 0.289291 0.269038
v 0.139218 0.285179 0.240166
v 0.217277 0.244306 0.218843
v 0.176534 0.268244 0.215001
v 0.134860 0.304505 0.183950
v 0.137565 0.323475 0.160726
v 0.255002 0.279163 0.147117
v 0.198776 0.312196 0.141815
v 0.165403 0.403417 0.138093
v 0.153959 0.375688 0.137761
v 0.111190 0.452739 0.168397
v 0.047206 0.467707 0.202246
v 0.003825 0.493804 0.263296
v 0.022164 0.506749 0.283197
v 0.156034 0.494861 0.243806
v 0.099400 0.508111 0.273767
v 0.062104 0.508479 0.327063
v 0.080026 0.494821 0.347032
v 0.176547 0.455096 0.319836
v 0.135508 0.464696 0.341547
v 0.105750 0.449650 0.376198
v 0.109638 0.420058 0.381057
v 0.163093 0.377233 0.343854
v 0.133959 0.384049 0.359267
v 0.101065 0.361404 0.372792
v 0.088304 0.337508 0.359237
v 0.128705 0.312838 0.307327
v 0.099570 0.319654 0.322740
v 0.051733 0.311628 0.319550
v 0.031388 0.310405 0.297212
v 0.094686 0.301809 0.232885
v 0.053647 0.311410 0.254596
v -0.004232 0.337045 0.257534
v -0.017342 0.359715 0.242677
v 0.083689 0.359393 0.166962
v 0.027054 0.372642 0.196923
v -0.021139 0.447057 0.236780
v -0.025418 0.417653 0.232657
v -0.061536 0.469660 0.301179
v -0.101541 0.456559 0.361938
v -0.112809 0.455609 0.440437
v -0.089991 0.470021 0.453534
v 0.005539 0.509796 0.359161
v -0.029872 0.498200 0.412941
v -0.034751 0.476761 0.474163
v -0.006941 0.466342 0.479115
v 0.068756 0.465895 0.402278
v 0.043096 0.457492 0.441249
v 0.038329 0.427572 0.478594
v 0.049940 0.400508 0.471725
v 0.084954 0.384929 0.403851
v 0.066738 0.378963 0.431517
v 0.050288 0.344775 0.449910
v 0.037527 0.320879 0.436355
v 0.050565 0.320534 0.367324
v 0.032349 0.314569 0.394990
v -0.007965 0.292079 0.410218
v -0.036033 0.288327 0.399608
v -0.013105 0.312609 0.315327
v -0.038765 0.304206 0.354298
v -0.091199 0.308566 0.389617
v -0.114197 0.327997 0.389777
v -0.066807 0.374328 0.282317
v -0.102217 0.362732 0.336097
v -0.137774 0.408862 0.413920
v -0.137572 0.380925 0.402994
v -0.144903 0.368874 0.557342
v -0.144156 0.405041 0.492881
v -0.067316 0.421720 0.583022
v -0.066655 0.453732 0.525965
v 0.016458 0.402670 0.562975
v 0.016936 0.425867 0.521630
v 0.047193 0.339278 0.519879
v 0.047533 0.355746 0.490528
v 0.012805 0.274884 0.483351
v 0.013145 0.291352 0.454000
v -0.065403 0.249383 0.476023
v -0.064924 0.272580 0.434678
v -0.139661 0.286251 0.506177
v -0.139000 0.318263 0.449121
v -0.149578 0.346829 0.462450
v -0.152260 0.376588 0.477322
v -0.150285 0.312619 0.523424
v -0.152998 0.340848 0.541023
v -0.093230 0.282279 0.436265
v -0.119876 0.296379 0.440264
v -0.093771 0.256072 0.482974
v -0.120480 0.267098 0.492453
v -0.010130 0.278501 0.444589
v -0.036506 0.270291 0.437137
v -0.010504 0.260385 0.476878
v -0.036925 0.250007 0.473289
v 0.044781 0.330726 0.477621
v 0.032865 0.308412 0.464964
v 0.044462 0.315251 0.505203
v 0.032546 0.292937 0.492546
v 0.035862 0.405803 0.514005
v 0.044609 0.381002 0.502733
v 0.035444 0.385519 0.550158
v 0.044235 0.362887 0.535022
v -0.036434 0.452626 0.528895
v -0.008366 0.441188 0.526406
v -0.037039 0.423345 0.581084
v -0.008907 0.414981 0.573115
v -0.124606 0.428370 0.506696
v -0.097490 0.444366 0.517778
v -0.125344 0.392630 0.570397
v -0.098196 0.410156 0.578751
v -0.072097 0.407143 0.283177
v -0.071003 0.439976 0.289075
v -0.109938 0.394751 0.340649
v -0.110536 0.427029 0.349118
v -0.034476 0.327756 0.300780
v -0.054044 0.347416 0.288313
v -0.063465 0.318263 0.344807
v -0.086433 0.336809 0.337505
v 0.030776 0.310290 0.350037
v 0.009050 0.305588 0.332022
v 0.010737 0.303728 0.380471
v -0.013387 0.298240 0.366099
v 0.079985 0.358197 0.396050
v 0.068069 0.335883 0.383393
v 0.062868 0.352591 0.422048
v 0.050951 0.330277 0.409391
v 0.081418 0.441100 0.408891
v 0.085515 0.412792 0.408180
v 0.058981 0.433753 0.442968
v 0.065476 0.406230 0.438614
v 0.029398 0.503663 0.376944
v 0.050387 0.486665 0.390920
v -0.002991 0.493056 0.426135
v 0.021398 0.477172 0.434947
v -0.043349 0.491758 0.318448
v -0.020009 0.504680 0.338504
v -0.082883 0.478812 0.378491
v -0.057850 0.492288 0.395976
v 0.089575 0.391167 0.159133
v 0.098695 0.423271 0.158760
v 0.029053 0.405326 0.191151
v 0.035465 0.438063 0.192211
v 0.087839 0.315545 0.207152
v 0.083096 0.333764 0.183269
v 0.041475 0.326391 0.231680
v 0.031293 0.345883 0.210674
v 0.116073 0.301836 0.284637
v 0.103928 0.296133 0.259366
v 0.084023 0.309334 0.301593
v 0.068043 0.304528 0.278351
v 0.153514 0.350963 0.339579
v 0.141597 0.328649 0.326921
v 0.126136 0.357368 0.354063
v 0.114220 0.335054 0.341405
v 0.176297 0.431645 0.336235
v 0.170812 0.404338 0.342781
v 0.140412 0.440040 0.355219
v 0.138763 0.411835 0.359736
v 0.166538 0.490011 0.271899
v 0.172702 0.474454 0.297292
v 0.114735 0.502130 0.299305
v 0.126339 0.485300 0.321820
v 0.126349 0.475054 0.188134
v 0.141663 0.488704 0.214460
v 0.063119 0.489846 0.221584
v 0.081141 0.502863 0.246479
v 0.273685 0.305004 0.137699
v 0.292013 0.332855 0.136155
v 0.213600 0.340306 0.132034
v 0.229240 0.369736 0.130236
v 0.226995 0.250311 0.191143
v 0.239160 0.260638 0.165255
v 0.180967 0.277354 0.186803
v 0.187731 0.290854 0.160406
v 0.213180 0.256368 0.273372
v 0.211889 0.245538 0.246920
v 0.181362 0.275062 0.270372
v 0.176263 0.266469 0.243561
v 0.237282 0.311788 0.329777
v 0.225365 0.289474 0.317120
v 0.210101 0.327757 0.327215
v 0.198185 0.305443 0.314557
v 0.284258 0.381050 0.323789
v 0.267919 0.358869 0.331516
v 0.248632 0.401981 0.320430
v 0.236101 0.377563 0.328515
v 0.322602 0.416886 0.253886
v 0.311859 0.409220 0.281284
v 0.271173 0.447101 0.249036
v 0.265830 0.436263 0.276944
v 0.319667 0.384637 0.165529
v 0.325774 0.402541 0.193026
v 0.256894 0.421518 0.159610
v 0.265688 0.437843 0.187361
v 0.409909 0.181565 0.227062
v 0.435112 0.203263 0.229894
v 0.373211 0.224525 0.185877
v 0.396772 0.248145 0.186866
v 0.329841 0.156971 0.258869
v 0.354538 0.155970 0.241153
v 0.301728 0.189881 0.227319
v 0.323127 0.192741 0.205901
v 0.285006 0.191253 0.320543
v 0.291695 0.173128 0.299438
v 0.265572 0.214002 0.298734
v 0.269936 0.198601 0.275019
v 0.299292 0.255635 0.370389
v 0.287376 0.233321 0.357732
v 0.282691 0.275069 0.351759
v 0.270775 0.252754 0.339101
v 0.364063 0.308640 0.376307
v 0.339745 0.293754 0.378687
v 0.342304 0.334113 0.351888
v 0.320311 0.316504 0.356877
v 0.437980 0.312217 0.329783
v 0.414704 0.315880 0.349010
v 0.406569 0.348988 0.294532
v 0.386591 0.348790 0.317460
v 0.462765 0.255045 0.259267
v 0.461998 0.279102 0.282390
v 0.424425 0.299927 0.216240
v 0.425299 0.322062 0.241204
v 0.446214 0.067999 0.393089
v 0.473331 0.083995 0.404171
v 0.446921 0.102209 0.332115
v 0.474069 0.119735 0.340470
v 0.357091 0.071177 0.384461
v 0.385159 0.059739 0.381971
v 0.357632 0.097384 0.337752
v 0.385763 0.089020 0.329783
v 0.304115 0.131362 0.408134
v 0.312862 0.106562 0.396861
v 0.304489 0.149478 0.375845
v 0.313281 0.126846 0.360708
v 0.315859 0.203953 0.445903
v 0.303943 0.181639 0.433245
v 0.316179 0.219428 0.418321
v 0.304263 0.197114 0.405663
v 0.385231 0.242074 0.473730
v 0.358855 0.233864 0.466277
v 0.385650 0.262358 0.437577
v 0.359229 0.251980 0.433989
v 0.468600 0.215986 0.470602
v 0.441954 0.230086 0.474601
v 0.469205 0.245267 0.418413
v 0.442495 0.256293 0.427892
v 0.500985 0.135777 0.433544
v 0.498303 0.165536 0.448416
v 0.501723 0.171517 0.369843
v 0.499009 0.199746 0.387443
v 0.368733 0.007685 0.572362
v 0.392073 0.020607 0.592418
v 0.406575 0.020077 0.514890
v 0.431607 0.033553 0.532375
v 0.298338 0.025700 0.519946
v 0.319326 0.008702 0.533923
v 0.327326 0.035194 0.475919
v 0.351716 0.019309 0.484731
v 0.263209 0.099573 0.502686
v 0.267306 0.071265 0.501975
v 0.283248 0.106136 0.472252
v 0.289743 0.078613 0.467899
v 0.280656 0.176482 0.527474
v 0.268739 0.154168 0.514816
v 0.297773 0.182088 0.501476
v 0.285857 0.159774 0.488818
v 0.339675 0.206777 0.578844
v 0.317949 0.202075 0.560830
v 0.362112 0.214125 0.544768
v 0.337987 0.208637 0.530396
v 0.402768 0.164949 0.622554
v 0.383201 0.184610 0.610087
v 0.435157 0.175556 0.573362
v 0.412189 0.194103 0.566060
v 0.419727 0.072389 0.621792
v 0.420822 0.105222 0.627690
v 0.459261 0.085336 0.561749
v 0.458663 0.117614 0.570218
v 0.207061 0.023661 0.696407
v 0.222375 0.037311 0.722733
v 0.267583 0.009502 0.664388
v 0.285605 0.022519 0.689283
v 0.176022 0.037911 0.613575
v 0.182187 0.022354 0.638968
v 0.222385 0.027065 0.589047
v 0.233989 0.010235 0.611562
v 0.177912 0.108027 0.568086
v 0.172427 0.080720 0.574632
v 0.209962 0.100530 0.551130
v 0.208313 0.072325 0.555647
v 0.207127 0.183716 0.583945
v 0.195211 0.161402 0.571288
v 0.234505 0.177311 0.569462
v 0.222588 0.154997 0.556804
v 0.244796 0.216232 0.651501
v 0.232652 0.210529 0.626229
v 0.280681 0.207837 0.632516
v 0.264701 0.203031 0.609274
v 0.265629 0.178601 0.727598
v 0.260886 0.196820 0.703715
v 0.317431 0.166482 0.700193
v 0.307249 0.185974 0.679187
v 0.250029 0.089094 0.752107
v 0.259149 0.121198 0.751734
v 0.313259 0.074302 0.718656
v 0.319671 0.107039 0.719716
v 0.022951 0.109824 0.717840
v 0.029057 0.127728 0.745338
v 0.083036 0.074522 0.723506
v 0.091830 0.090847 0.751257
v 0.036865 0.103145 0.629583
v 0.026122 0.095479 0.656981
v 0.082894 0.076102 0.633923
v 0.077551 0.065264 0.661830
v 0.080805 0.153496 0.579351
v 0.064467 0.131315 0.587078
v 0.112624 0.134802 0.582351
v 0.100093 0.110383 0.590437
v 0.123359 0.222891 0.593747
v 0.111443 0.200577 0.581089
v 0.150540 0.206922 0.596310
v 0.138623 0.184608 0.583652
v 0.136835 0.266827 0.663947
v 0.135545 0.255997 0.637495
v 0.172461 0.245896 0.667306
v 0.167363 0.237303 0.640495
v 0.109565 0.251726 0.745611
v 0.121729 0.262054 0.719723
v 0.160993 0.221511 0.750461
v 0.167758 0.235011 0.724063
v 0.056711 0.179510 0.774711
v 0.075039 0.207360 0.773167
v 0.119484 0.142630 0.780631
v 0.135125 0.172059 0.778833
v -0.113273 0.233263 0.628477
v -0.114041 0.257320 0.651600
v -0.076575 0.190303 0.669662
v -0.075701 0.212438 0.694627
v -0.065980 0.196485 0.561857
v -0.089255 0.200148 0.581083
v -0.037867 0.163575 0.593407
v -0.057844 0.163377 0.616335
v 0.008979 0.218611 0.532180
v -0.015339 0.203724 0.534559
v 0.028413 0.195861 0.553989
v 0.006421 0.178252 0.558979
v 0.061349 0.279044 0.553135
v 0.049432 0.256730 0.540477
v 0.077950 0.259611 0.571765
v 0.066033 0.237296 0.559108
v 0.057030 0.339237 0.611428
v 0.063719 0.321112 0.590323
v 0.078789 0.313764 0.635848
v 0.083152 0.298363 0.612133
v -0.005813 0.356395 0.669714
v 0.018884 0.355394 0.651997
v 0.025598 0.319624 0.704965
v 0.046997 0.322484 0.683547
v -0.086387 0.309102 0.680973
v -0.061185 0.330800 0.683804
v -0.048047 0.264220 0.724001
v -0.024486 0.287840 0.724989
s 0
f 17 140 137
f 17 144 140
f 8 155 152
f 8 152 156
f 8 156 162
f 12 173 170
f 2 182 177
f 22 191 188
f 3 198 195
f 23 206 203
f 16 213 210
f 17 219 144
f 16 210 225
f 15 234 231
f 15 204 234
f 3 201 198
f 28 248 245
f 24 239 252
f 28 245 260
f 28 248 264
f 27 272 267
f 19 230 276
f 19 276 149
f 10 161 285
f 25 258 288
f 25 288 291
f 18 216 279
f 24 302 299
f 20 305 308
f 9 165 171
f 12 314 317
f 20 308 287
f 4 326 321
f 5 185 323
f 12 170 332
f 12 317 332
f 13 339 338
f 13 338 311
f 13 300 345
f 29 296 269
f 25 291 261
f 22 240 273
f 13 345 339
f 4 342 326
f 2 189 354
f 27 353 272
f 17 360 137
f 17 219 360
f 8 155 369
f 8 369 372
f 8 372 162
f 35 386 383
f 2 182 387
f 41 398 395
f 3 399 195
f 42 407 404
f 37 413 408
f 19 222 227
f 16 411 417
f 16 414 233
f 15 405 423
f 3 402 399
f 47 437 434
f 43 428 441
f 47 434 449
f 47 437 453
f 46 461 456
f 38 422 465
f 38 465 368
f 33 377 474
f 44 447 477
f 44 477 480
f 37 408 468
f 43 491 488
f 39 494 497
f 9 378 384
f 35 503 506
f 39 497 476
f 30 515 510
f 31 392 512
f 35 383 521
f 35 506 521
f 36 527 500
f 36 528 527
f 36 489 534
f 48 485 458
f 44 480 450
f 41 429 462
f 36 534 528
f 30 531 515
f 2 396 543
f 46 542 461
f 49 50 52 51
f 51 55 53 49
f 56 52 50 54
f 57 58 60 59
f 59 60 64 63
f 63 64 62 61
f 61 62 58 57
f 59 63 61 57
f 64 60 58 62
f 1384 830 73 832
f 1380 836 74 838
f 1376 842 75 844
f 1372 848 76 850
f 1368 854 77 856
f 1364 860 78 862
f 1360 865 72 828
f 1356 870 80 872
f 1352 874 81 876
f 1348 878 82 880
f 1344 882 83 884
f 1340 886 84 888
f 1336 890 85 892
f 1332 893 79 868
f 1328 898 87 900
f 1324 902 88 904
f 1320 906 89 908
f 1316 910 90 912
f 1312 914 91 916
f 1308 918 92 920
f 1304 921 86 896
f 1300 926 94 928
f 1296 930 95 932
f 1292 934 96 936
f 1288 938 97 940
f 1284 942 98 944
f 1280 946 99 948
f 1276 949 93 924
f 1272 954 101 956
f 1268 958 102 960
f 1264 962 103 964
f 1260 966 104 968
f 1256 970 105 972
f 1252 974 106 976
f 1248 977 100 952
f 1244 982 108 984
f 1240 986 109 988
f 1236 990 110 992
f 1232 994 111 996
f 1228 998 112 1000
f 1224 1002 113 1004
f 1220 1005 107 980
f 1216 1010 115 1012
f 1212 1014 116 1016
f 1208 1018 117 1020
f 1204 1022 118 1024
f 1200 1026 119 1028
f 1196 1030 120 1032
f 1192 1033 114 1008
f 1188 1038 122 1040
f 1184 1042 123 1044
f 1180 1046 124 1048
f 1176 1050 125 1052
f 1172 1054 126 1056
f 1168 1058 127 1060
f 1164 1061 121 1036
f 1160 1066 129 1068
f 1156 1070 130 1072
f 1152 1074 131 1076
f 1148 1078 132 1080
f 1144 1082 133 1084
f 1140 1086 134 1088
f 1136 1089 128 1064
f 1132 826 66 1093
f 1128 834 67 1095
f 1124 840 68 1097
f 1120 846 69 1099
f 1116 852 70 1101
f 1112 858 71 1103
f 1108 863 65 1091
f 459 548 41
f 460 549 459
f 461 550 460
f 459 549 548
f 549 547 548
f 460 550 549
f 550 551 549
f 549 551 547
f 551 546 547
f 461 542 550
f 542 541 550
f 550 541 551
f 541 540 551
f 551 540 546
f 540 40 546
f 545 546 40
f 544 552 545
f 543 553 544
f 545 552 546
f 552 547 546
f 544 553 552
f 553 554 552
f 552 554 547
f 554 548 547
f 543 396 553
f 396 397 553
f 553 397 554
f 397 398 554
f 554 398 548
f 398 41 548
f 513 543 2
f 514 555 513
f 515 556 514
f 513 555 543
f 555 544 543
f 514 556 555
f 556 557 555
f 555 557 544
f 557 545 544
f 515 531 556
f 531 532 556
f 556 532 557
f 532 533 557
f 557 533 545
f 533 40 545
f 530 540 40
f 529 558 530
f 528 559 529
f 530 558 540
f 558 541 540
f 529 559 558
f 559 560 558
f 558 560 541
f 560 542 541
f 528 534 559
f 534 535 559
f 559 535 560
f 535 536 560
f 560 536 542
f 536 46 542
f 464 446 48
f 463 561 464
f 462 562 463
f 464 561 446
f 561 445 446
f 463 562 561
f 562 563 561
f 561 563 445
f 563 444 445
f 462 429 562
f 429 430 562
f 562 430 563
f 430 431 563
f 563 431 444
f 431 42 444
f 452 539 46
f 451 564 452
f 450 565 451
f 452 564 539
f 564 538 539
f 451 565 564
f 565 566 564
f 564 566 538
f 566 537 538
f 450 480 565
f 480 481 565
f 565 481 566
f 481 482 566
f 566 482 537
f 482 45 537
f 456 539 46
f 457 567 456
f 458 568 457
f 456 567 539
f 567 538 539
f 457 568 567
f 568 569 567
f 567 569 538
f 569 537 538
f 458 485 568
f 485 484 568
f 568 484 569
f 484 483 569
f 569 483 537
f 483 45 537
f 536 440 46
f 535 570 536
f 534 571 535
f 536 570 440
f 570 439 440
f 535 571 570
f 571 572 570
f 570 572 439
f 572 438 439
f 534 489 571
f 489 490 571
f 571 490 572
f 490 491 572
f 572 491 438
f 491 43 438
f 525 531 30
f 526 573 525
f 527 574 526
f 525 573 531
f 573 532 531
f 526 574 573
f 574 575 573
f 573 575 532
f 575 533 532
f 527 528 574
f 528 529 574
f 574 529 575
f 529 530 575
f 575 530 533
f 530 40 533
f 498 524 34
f 499 576 498
f 500 577 499
f 498 576 524
f 576 523 524
f 499 577 576
f 577 578 576
f 576 578 523
f 578 522 523
f 500 527 577
f 527 526 577
f 577 526 578
f 526 525 578
f 578 525 522
f 525 30 522
f 519 522 30
f 520 579 519
f 521 580 520
f 519 579 522
f 579 523 522
f 520 580 579
f 580 581 579
f 579 581 523
f 581 524 523
f 521 506 580
f 506 505 580
f 580 505 581
f 505 504 581
f 581 504 524
f 504 34 524
f 519 518 30
f 520 582 519
f 521 583 520
f 519 582 518
f 582 517 518
f 520 583 582
f 583 584 582
f 582 584 517
f 584 516 517
f 521 383 583
f 383 382 583
f 583 382 584
f 382 381 584
f 584 381 516
f 381 1 516
f 510 518 30
f 511 585 510
f 512 586 511
f 510 585 518
f 585 517 518
f 511 586 585
f 586 587 585
f 585 587 517
f 587 516 517
f 512 392 586
f 392 391 586
f 586 391 587
f 391 390 587
f 587 390 516
f 390 1 516
f 512 389 31
f 511 588 512
f 510 589 511
f 512 588 389
f 588 388 389
f 511 589 588
f 589 590 588
f 588 590 388
f 590 387 388
f 510 515 589
f 515 514 589
f 589 514 590
f 514 513 590
f 590 513 387
f 513 2 387
f 474 507 33
f 475 591 474
f 476 592 475
f 474 591 507
f 591 508 507
f 475 592 591
f 592 593 591
f 591 593 508
f 593 509 508
f 476 497 592
f 497 496 592
f 592 496 593
f 496 495 593
f 593 495 509
f 495 34 509
f 504 509 34
f 505 594 504
f 506 595 505
f 504 594 509
f 594 508 509
f 505 595 594
f 595 596 594
f 594 596 508
f 596 507 508
f 506 503 595
f 503 502 595
f 595 502 596
f 502 501 596
f 596 501 507
f 501 33 507
f 386 503 35
f 385 597 386
f 384 598 385
f 386 597 503
f 597 502 503
f 385 598 597
f 598 599 597
f 597 599 502
f 599 501 502
f 384 378 598
f 378 379 598
f 598 379 599
f 379 380 599
f 599 380 501
f 380 33 501
f 495 498 34
f 496 600 495
f 497 601 496
f 495 600 498
f 600 499 498
f 496 601 600
f 601 602 600
f 600 602 499
f 602 500 499
f 497 494 601
f 494 493 601
f 601 493 602
f 493 492 602
f 602 492 500
f 492 36 500
f 486 494 39
f 487 603 486
f 488 604 487
f 486 603 494
f 603 493 494
f 487 604 603
f 604 605 603
f 603 605 493
f 605 492 493
f 488 491 604
f 491 490 604
f 604 490 605
f 490 489 605
f 605 489 492
f 489 36 492
f 470 486 39
f 469 606 470
f 468 607 469
f 470 606 486
f 606 487 486
f 469 607 606
f 607 608 606
f 606 608 487
f 608 488 487
f 468 408 607
f 408 409 607
f 607 409 608
f 409 410 608
f 608 410 488
f 410 43 488
f 482 483 45
f 481 609 482
f 480 610 481
f 482 609 483
f 609 484 483
f 481 610 609
f 610 611 609
f 609 611 484
f 611 485 484
f 480 477 610
f 477 478 610
f 610 478 611
f 478 479 611
f 611 479 485
f 479 48 485
f 479 455 48
f 478 612 479
f 477 613 478
f 479 612 455
f 612 454 455
f 478 613 612
f 613 614 612
f 612 614 454
f 614 453 454
f 477 447 613
f 447 448 613
f 613 448 614
f 448 449 614
f 614 449 453
f 449 47 453
f 476 473 39
f 475 615 476
f 474 616 475
f 476 615 473
f 615 472 473
f 475 616 615
f 616 617 615
f 615 617 472
f 617 471 472
f 474 377 616
f 377 376 616
f 616 376 617
f 376 375 617
f 617 375 471
f 375 32 471
f 366 471 32
f 367 618 366
f 368 619 367
f 366 618 471
f 618 472 471
f 367 619 618
f 619 620 618
f 618 620 472
f 620 473 472
f 368 465 619
f 465 466 619
f 619 466 620
f 466 467 620
f 620 467 473
f 467 39 473
f 467 470 39
f 466 621 467
f 465 622 466
f 467 621 470
f 621 469 470
f 466 622 621
f 622 623 621
f 621 623 469
f 623 468 469
f 465 422 622
f 422 421 622
f 622 421 623
f 421 420 623
f 623 420 468
f 420 37 468
f 458 464 48
f 457 624 458
f 456 625 457
f 458 624 464
f 624 463 464
f 457 625 624
f 625 626 624
f 624 626 463
f 626 462 463
f 456 461 625
f 461 460 625
f 625 460 626
f 460 459 626
f 626 459 462
f 459 41 462
f 455 443 48
f 454 627 455
f 453 628 454
f 455 627 443
f 627 442 443
f 454 628 627
f 628 629 627
f 627 629 442
f 629 441 442
f 453 437 628
f 437 436 628
f 628 436 629
f 436 435 629
f 629 435 441
f 435 43 441
f 447 450 44
f 448 630 447
f 449 631 448
f 447 630 450
f 630 451 450
f 448 631 630
f 631 632 630
f 630 632 451
f 632 452 451
f 449 434 631
f 434 433 631
f 631 433 632
f 433 432 632
f 632 432 452
f 432 46 452
f 443 446 48
f 442 633 443
f 441 634 442
f 443 633 446
f 633 445 446
f 442 634 633
f 634 635 633
f 633 635 445
f 635 444 445
f 441 428 634
f 428 427 634
f 634 427 635
f 427 426 635
f 635 426 444
f 426 42 444
f 432 440 46
f 433 636 432
f 434 637 433
f 432 636 440
f 636 439 440
f 433 637 636
f 637 638 636
f 636 638 439
f 638 438 439
f 434 437 637
f 437 436 637
f 637 436 638
f 436 435 638
f 638 435 438
f 435 43 438
f 401 429 41
f 400 639 401
f 399 640 400
f 401 639 429
f 639 430 429
f 400 640 639
f 640 641 639
f 639 641 430
f 641 431 430
f 399 402 640
f 402 403 640
f 640 403 641
f 403 404 641
f 641 404 431
f 404 42 431
f 425 428 43
f 424 642 425
f 423 643 424
f 425 642 428
f 642 427 428
f 424 643 642
f 643 644 642
f 642 644 427
f 644 426 427
f 423 405 643
f 405 406 643
f 643 406 644
f 406 407 644
f 644 407 426
f 407 42 426
f 231 423 15
f 232 645 231
f 233 646 232
f 231 645 423
f 645 424 423
f 232 646 645
f 646 647 645
f 645 647 424
f 647 425 424
f 233 414 646
f 414 415 646
f 646 415 647
f 415 416 647
f 647 416 425
f 416 43 425
f 419 422 38
f 418 648 419
f 417 649 418
f 419 648 422
f 648 421 422
f 418 649 648
f 649 650 648
f 648 650 421
f 650 420 421
f 417 411 649
f 411 412 649
f 649 412 650
f 412 413 650
f 650 413 420
f 413 37 420
f 225 417 16
f 226 651 225
f 227 652 226
f 225 651 417
f 651 418 417
f 226 652 651
f 652 653 651
f 651 653 418
f 653 419 418
f 227 222 652
f 222 223 652
f 652 223 653
f 223 224 653
f 653 224 419
f 224 38 419
f 410 416 43
f 409 654 410
f 408 655 409
f 410 654 416
f 654 415 416
f 409 655 654
f 655 656 654
f 654 656 415
f 656 414 415
f 408 413 655
f 413 412 655
f 655 412 656
f 412 411 656
f 656 411 414
f 411 16 414
f 402 207 3
f 403 657 402
f 404 658 403
f 402 657 207
f 657 208 207
f 403 658 657
f 658 659 657
f 657 659 208
f 659 209 208
f 404 407 658
f 407 406 658
f 658 406 659
f 406 405 659
f 659 405 209
f 405 15 209
f 197 393 14
f 196 660 197
f 195 661 196
f 197 660 393
f 660 394 393
f 196 661 660
f 661 662 660
f 660 662 394
f 662 395 394
f 195 399 661
f 399 400 661
f 661 400 662
f 400 401 662
f 662 401 395
f 401 41 395
f 393 194 14
f 394 663 393
f 395 664 394
f 393 663 194
f 663 193 194
f 394 664 663
f 664 665 663
f 663 665 193
f 665 192 193
f 395 398 664
f 398 397 664
f 664 397 665
f 397 396 665
f 665 396 192
f 396 2 192
f 389 392 31
f 388 666 389
f 387 667 388
f 389 666 392
f 666 391 392
f 388 667 666
f 667 668 666
f 666 668 391
f 668 390 391
f 387 182 667
f 182 181 667
f 667 181 668
f 181 180 668
f 668 180 390
f 180 1 390
f 381 174 1
f 382 669 381
f 383 670 382
f 381 669 174
f 669 175 174
f 382 670 669
f 670 671 669
f 669 671 175
f 671 176 175
f 383 386 670
f 386 385 670
f 670 385 671
f 385 384 671
f 671 384 176
f 384 9 176
f 164 378 9
f 163 672 164
f 162 673 163
f 164 672 378
f 672 379 378
f 163 673 672
f 673 674 672
f 672 674 379
f 674 380 379
f 162 372 673
f 372 373 673
f 673 373 674
f 373 374 674
f 674 374 380
f 374 33 380
f 374 377 33
f 373 675 374
f 372 676 373
f 374 675 377
f 675 376 377
f 373 676 675
f 676 677 675
f 675 677 376
f 677 375 376
f 372 369 676
f 369 370 676
f 676 370 677
f 370 371 677
f 677 371 375
f 371 32 375
f 371 365 32
f 370 678 371
f 369 679 370
f 371 678 365
f 678 364 365
f 370 679 678
f 679 680 678
f 678 680 364
f 680 363 364
f 369 155 679
f 155 154 679
f 679 154 680
f 154 153 680
f 680 153 363
f 153 7 363
f 362 366 32
f 361 681 362
f 360 682 361
f 362 681 366
f 681 367 366
f 361 682 681
f 682 683 681
f 681 683 367
f 683 368 367
f 360 219 682
f 219 220 682
f 682 220 683
f 220 221 683
f 683 221 368
f 221 38 368
f 135 363 7
f 136 684 135
f 137 685 136
f 135 684 363
f 684 364 363
f 136 685 684
f 685 686 684
f 684 686 364
f 686 365 364
f 137 360 685
f 360 361 685
f 685 361 686
f 361 362 686
f 686 362 365
f 362 32 365
f 270 359 22
f 271 687 270
f 272 688 271
f 270 687 359
f 687 358 359
f 271 688 687
f 688 689 687
f 687 689 358
f 689 357 358
f 272 353 688
f 353 352 688
f 688 352 689
f 352 351 689
f 689 351 357
f 351 21 357
f 356 357 21
f 355 690 356
f 354 691 355
f 356 690 357
f 690 358 357
f 355 691 690
f 691 692 690
f 690 692 358
f 692 359 358
f 354 189 691
f 189 190 691
f 691 190 692
f 190 191 692
f 692 191 359
f 191 22 359
f 324 354 2
f 325 693 324
f 326 694 325
f 324 693 354
f 693 355 354
f 325 694 693
f 694 695 693
f 693 695 355
f 695 356 355
f 326 342 694
f 342 343 694
f 694 343 695
f 343 344 695
f 695 344 356
f 344 21 356
f 341 351 21
f 340 696 341
f 339 697 340
f 341 696 351
f 696 352 351
f 340 697 696
f 697 698 696
f 696 698 352
f 698 353 352
f 339 345 697
f 345 346 697
f 697 346 698
f 346 347 698
f 698 347 353
f 347 27 353
f 275 257 29
f 274 699 275
f 273 700 274
f 275 699 257
f 699 256 257
f 274 700 699
f 700 701 699
f 699 701 256
f 701 255 256
f 273 240 700
f 240 241 700
f 700 241 701
f 241 242 701
f 701 242 255
f 242 23 255
f 263 350 27
f 262 702 263
f 261 703 262
f 263 702 350
f 702 349 350
f 262 703 702
f 703 704 702
f 702 704 349
f 704 348 349
f 261 291 703
f 291 292 703
f 703 292 704
f 292 293 704
f 704 293 348
f 293 26 348
f 267 350 27
f 268 705 267
f 269 706 268
f 267 705 350
f 705 349 350
f 268 706 705
f 706 707 705
f 705 707 349
f 707 348 349
f 269 296 706
f 296 295 706
f 706 295 707
f 295 294 707
f 707 294 348
f 294 26 348
f 347 251 27
f 346 708 347
f 345 709 346
f 347 708 251
f 708 250 251
f 346 709 708
f 709 710 708
f 708 710 250
f 710 249 250
f 345 300 709
f 300 301 709
f 709 301 710
f 301 302 710
f 710 302 249
f 302 24 249
f 309 335 11
f 310 711 309
f 311 712 310
f 309 711 335
f 711 334 335
f 310 712 711
f 712 713 711
f 711 713 334
f 713 333 334
f 311 338 712
f 338 337 712
f 712 337 713
f 337 336 713
f 713 336 333
f 336 4 333
f 336 342 4
f 337 714 336
f 338 715 337
f 336 714 342
f 714 343 342
f 337 715 714
f 715 716 714
f 714 716 343
f 716 344 343
f 338 339 715
f 339 340 715
f 715 340 716
f 340 341 716
f 716 341 344
f 341 21 344
f 330 333 4
f 331 717 330
f 332 718 331
f 330 717 333
f 717 334 333
f 331 718 717
f 718 719 717
f 717 719 334
f 719 335 334
f 332 317 718
f 317 316 718
f 718 316 719
f 316 315 719
f 719 315 335
f 315 11 335
f 330 329 4
f 331 720 330
f 332 721 331
f 330 720 329
f 720 328 329
f 331 721 720
f 721 722 720
f 720 722 328
f 722 327 328
f 332 170 721
f 170 169 721
f 721 169 722
f 169 168 722
f 722 168 327
f 168 1 327
f 321 329 4
f 322 723 321
f 323 724 322
f 321 723 329
f 723 328 329
f 322 724 723
f 724 725 723
f 723 725 328
f 725 327 328
f 323 185 724
f 185 184 724
f 724 184 725
f 184 183 725
f 725 183 327
f 183 1 327
f 323 179 5
f 322 726 323
f 321 727 322
f 323 726 179
f 726 178 179
f 322 727 726
f 727 728 726
f 726 728 178
f 728 177 178
f 321 326 727
f 326 325 727
f 727 325 728
f 325 324 728
f 728 324 177
f 324 2 177
f 285 318 10
f 286 729 285
f 287 730 286
f 285 729 318
f 729 319 318
f 286 730 729
f 730 731 729
f 729 731 319
f 731 320 319
f 287 308 730
f 308 307 730
f 730 307 731
f 307 306 731
f 731 306 320
f 306 11 320
f 315 320 11
f 316 732 315
f 317 733 316
f 315 732 320
f 732 319 320
f 316 733 732
f 733 734 732
f 732 734 319
f 734 318 319
f 317 314 733
f 314 313 733
f 733 313 734
f 313 312 734
f 734 312 318
f 312 10 318
f 173 314 12
f 172 735 173
f 171 736 172
f 173 735 314
f 735 313 314
f 172 736 735
f 736 737 735
f 735 737 313
f 737 312 313
f 171 165 736
f 165 166 736
f 736 166 737
f 166 167 737
f 737 167 312
f 167 10 312
f 306 309 11
f 307 738 306
f 308 739 307
f 306 738 309
f 738 310 309
f 307 739 738
f 739 740 738
f 738 740 310
f 740 311 310
f 308 305 739
f 305 304 739
f 739 304 740
f 304 303 740
f 740 303 311
f 303 13 311
f 297 305 20
f 298 741 297
f 299 742 298
f 297 741 305
f 741 304 305
f 298 742 741
f 742 743 741
f 741 743 304
f 743 303 304
f 299 302 742
f 302 301 742
f 742 301 743
f 301 300 743
f 743 300 303
f 300 13 303
f 281 297 20
f 280 744 281
f 279 745 280
f 281 744 297
f 744 298 297
f 280 745 744
f 745 746 744
f 744 746 298
f 746 299 298
f 279 216 745
f 216 217 745
f 745 217 746
f 217 218 746
f 746 218 299
f 218 24 299
f 293 294 26
f 292 747 293
f 291 748 292
f 293 747 294
f 747 295 294
f 292 748 747
f 748 749 747
f 747 749 295
f 749 296 295
f 291 288 748
f 288 289 748
f 748 289 749
f 289 290 749
f 749 290 296
f 290 29 296
f 290 266 29
f 289 750 290
f 288 751 289
f 290 750 266
f 750 265 266
f 289 751 750
f 751 752 750
f 750 752 265
f 752 264 265
f 288 258 751
f 258 259 751
f 751 259 752
f 259 260 752
f 752 260 264
f 260 28 264
f 287 284 20
f 286 753 287
f 285 754 286
f 287 753 284
f 753 283 284
f 286 754 753
f 754 755 753
f 753 755 283
f 755 282 283
f 285 161 754
f 161 160 754
f 754 160 755
f 160 159 755
f 755 159 282
f 159 6 282
f 147 282 6
f 148 756 147
f 149 757 148
f 147 756 282
f 756 283 282
f 148 757 756
f 757 758 756
f 756 758 283
f 758 284 283
f 149 276 757
f 276 277 757
f 757 277 758
f 277 278 758
f 758 278 284
f 278 20 284
f 278 281 20
f 277 759 278
f 276 760 277
f 278 759 281
f 759 280 281
f 277 760 759
f 760 761 759
f 759 761 280
f 761 279 280
f 276 230 760
f 230 229 760
f 760 229 761
f 229 228 761
f 761 228 279
f 228 18 279
f 269 275 29
f 268 762 269
f 267 763 268
f 269 762 275
f 762 274 275
f 268 763 762
f 763 764 762
f 762 764 274
f 764 273 274
f 267 272 763
f 272 271 763
f 763 271 764
f 271 270 764
f 764 270 273
f 270 22 273
f 266 254 29
f 265 765 266
f 264 766 265
f 266 765 254
f 765 253 254
f 265 766 765
f 766 767 765
f 765 767 253
f 767 252 253
f 264 248 766
f 248 247 766
f 766 247 767
f 247 246 767
f 767 246 252
f 246 24 252
f 258 261 25
f 259 768 258
f 260 769 259
f 258 768 261
f 768 262 261
f 259 769 768
f 769 770 768
f 768 770 262
f 770 263 262
f 260 245 769
f 245 244 769
f 769 244 770
f 244 243 770
f 770 243 263
f 243 27 263
f 254 257 29
f 253 771 254
f 252 772 253
f 254 771 257
f 771 256 257
f 253 772 771
f 772 773 771
f 771 773 256
f 773 255 256
f 252 239 772
f 239 238 772
f 772 238 773
f 238 237 773
f 773 237 255
f 237 23 255
f 243 251 27
f 244 774 243
f 245 775 244
f 243 774 251
f 774 250 251
f 244 775 774
f 775 776 774
f 774 776 250
f 776 249 250
f 245 248 775
f 248 247 775
f 775 247 776
f 247 246 776
f 776 246 249
f 246 24 249
f 200 240 22
f 199 777 200
f 198 778 199
f 200 777 240
f 777 241 240
f 199 778 777
f 778 779 777
f 777 779 241
f 779 242 241
f 198 201 778
f 201 202 778
f 778 202 779
f 202 203 779
f 779 203 242
f 203 23 242
f 236 239 24
f 235 780 236
f 234 781 235
f 236 780 239
f 780 238 239
f 235 781 780
f 781 782 780
f 780 782 238
f 782 237 238
f 234 204 781
f 204 205 781
f 781 205 782
f 205 206 782
f 782 206 237
f 206 23 237
f 233 213 16
f 232 783 233
f 231 784 232
f 233 783 213
f 783 214 213
f 232 784 783
f 784 785 783
f 783 785 214
f 785 215 214
f 231 234 784
f 234 235 784
f 784 235 785
f 235 236 785
f 785 236 215
f 236 24 215
f 227 230 19
f 226 786 227
f 225 787 226
f 227 786 230
f 786 229 230
f 226 787 786
f 787 788 786
f 786 788 229
f 788 228 229
f 225 210 787
f 210 211 787
f 787 211 788
f 211 212 788
f 788 212 228
f 212 18 228
f 146 222 19
f 145 789 146
f 144 790 145
f 146 789 222
f 789 223 222
f 145 790 789
f 790 791 789
f 789 791 223
f 791 224 223
f 144 219 790
f 219 220 790
f 790 220 791
f 220 221 791
f 791 221 224
f 221 38 224
f 212 216 18
f 211 792 212
f 210 793 211
f 212 792 216
f 792 217 216
f 211 793 792
f 793 794 792
f 792 794 217
f 794 218 217
f 210 213 793
f 213 214 793
f 793 214 794
f 214 215 794
f 794 215 218
f 215 24 218
f 201 207 3
f 202 795 201
f 203 796 202
f 201 795 207
f 795 208 207
f 202 796 795
f 796 797 795
f 795 797 208
f 797 209 208
f 203 206 796
f 206 205 796
f 796 205 797
f 205 204 797
f 797 204 209
f 204 15 209
f 197 186 14
f 196 798 197
f 195 799 196
f 197 798 186
f 798 187 186
f 196 799 798
f 799 800 798
f 798 800 187
f 800 188 187
f 195 198 799
f 198 199 799
f 799 199 800
f 199 200 800
f 800 200 188
f 200 22 188
f 186 194 14
f 187 801 186
f 188 802 187
f 186 801 194
f 801 193 194
f 187 802 801
f 802 803 801
f 801 803 193
f 803 192 193
f 188 191 802
f 191 190 802
f 802 190 803
f 190 189 803
f 803 189 192
f 189 2 192
f 179 185 5
f 178 804 179
f 177 805 178
f 179 804 185
f 804 184 185
f 178 805 804
f 805 806 804
f 804 806 184
f 806 183 184
f 177 182 805
f 182 181 805
f 805 181 806
f 181 180 806
f 806 180 183
f 180 1 183
f 168 174 1
f 169 807 168
f 170 808 169
f 168 807 174
f 807 175 174
f 169 808 807
f 808 809 807
f 807 809 175
f 809 176 175
f 170 173 808
f 173 172 808
f 808 172 809
f 172 171 809
f 809 171 176
f 171 9 176
f 164 165 9
f 163 810 164
f 162 811 163
f 164 810 165
f 810 166 165
f 163 811 810
f 811 812 810
f 810 812 166
f 812 167 166
f 162 156 811
f 156 157 811
f 811 157 812
f 157 158 812
f 812 158 167
f 158 10 167
f 158 161 10
f 157 813 158
f 156 814 157
f 158 813 161
f 813 160 161
f 157 814 813
f 814 815 813
f 813 815 160
f 815 159 160
f 156 152 814
f 152 151 814
f 814 151 815
f 151 150 815
f 815 150 159
f 150 6 159
f 150 141 6
f 151 816 150
f 152 817 151
f 150 816 141
f 816 142 141
f 151 817 816
f 817 818 816
f 816 818 142
f 818 143 142
f 152 155 817
f 155 154 817
f 817 154 818
f 154 153 818
f 818 153 143
f 153 7 143
f 138 147 6
f 139 819 138
f 140 820 139
f 138 819 147
f 819 148 147
f 139 820 819
f 820 821 819
f 819 821 148
f 821 149 148
f 140 144 820
f 144 145 820
f 820 145 821
f 145 146 821
f 821 146 149
f 146 19 149
f 135 143 7
f 136 822 135
f 137 823 136
f 135 822 143
f 822 142 143
f 136 823 822
f 823 824 822
f 822 824 142
f 824 141 142
f 137 140 823
f 140 139 823
f 823 139 824
f 139 138 824
f 824 138 141
f 138 6 141
f 1089 1106 1092 128
f 1106 1108 1091 1092
f 134 1104 1105 1090
f 1090 1105 1106 1089
f 1104 1103 1107 1105
f 1105 1107 1108 1106
f 1103 71 864 1107
f 1107 864 863 1108
f 1086 1110 1104 134
f 1110 1112 1103 1104
f 133 1102 1109 1085
f 1085 1109 1110 1086
f 1102 1101 1111 1109
f 1109 1111 1112 1110
f 1101 70 857 1111
f 1111 857 858 1112
f 1082 1114 1102 133
f 1114 1116 1101 1102
f 132 1100 1113 1081
f 1081 1113 1114 1082
f 1100 1099 1115 1113
f 1113 1115 1116 1114
f 1099 69 851 1115
f 1115 851 852 1116
f 1078 1118 1100 132
f 1118 1120 1099 1100
f 131 1098 1117 1077
f 1077 1117 1118 1078
f 1098 1097 1119 1117
f 1117 1119 1120 1118
f 1097 68 845 1119
f 1119 845 846 1120
f 1074 1122 1098 131
f 1122 1124 1097 1098
f 130 1096 1121 1073
f 1073 1121 1122 1074
f 1096 1095 1123 1121
f 1121 1123 1124 1122
f 1095 67 839 1123
f 1123 839 840 1124
f 1070 1126 1096 130
f 1126 1128 1095 1096
f 129 1094 1125 1069
f 1069 1125 1126 1070
f 1094 1093 1127 1125
f 1125 1127 1128 1126
f 1093 66 833 1127
f 1127 833 834 1128
f 1066 1130 1094 129
f 1130 1132 1093 1094
f 128 1092 1129 1065
f 1065 1129 1130 1066
f 1092 1091 1131 1129
f 1129 1131 1132 1130
f 1091 65 825 1131
f 1131 825 826 1132
f 1061 1134 1063 121
f 1134 1136 1064 1063
f 127 1087 1133 1062
f 1062 1133 1134 1061
f 1087 1088 1135 1133
f 1133 1135 1136 1134
f 1088 134 1090 1135
f 1135 1090 1089 1136
f 1058 1138 1087 127
f 1138 1140 1088 1087
f 126 1083 1137 1057
f 1057 1137 1138 1058
f 1083 1084 1139 1137
f 1137 1139 1140 1138
f 1084 133 1085 1139
f 1139 1085 1086 1140
f 1054 1142 1083 126
f 1142 1144 1084 1083
f 125 1079 1141 1053
f 1053 1141 1142 1054
f 1079 1080 1143 1141
f 1141 1143 1144 1142
f 1080 132 1081 1143
f 1143 1081 1082 1144
f 1050 1146 1079 125
f 1146 1148 1080 1079
f 124 1075 1145 1049
f 1049 1145 1146 1050
f 1075 1076 1147 1145
f 1145 1147 1148 1146
f 1076 131 1077 1147
f 1147 1077 1078 1148
f 1046 1150 1075 124
f 1150 1152 1076 1075
f 123 1071 1149 1045
f 1045 1149 1150 1046
f 1071 1072 1151 1149
f 1149 1151 1152 1150
f 1072 130 1073 1151
f 1151 1073 1074 1152
f 1042 1154 1071 123
f 1154 1156 1072 1071
f 122 1067 1153 1041
f 1041 1153 1154 1042
f 1067 1068 1155 1153
f 1153 1155 1156 1154
f 1068 129 1069 1155
f 1155 1069 1070 1156
f 1038 1158 1067 122
f 1158 1160 1068 1067
f 121 1063 1157 1037
f 1037 1157 1158 1038
f 1063 1064 1159 1157
f 1157 1159 1160 1158
f 1064 128 1065 1159
f 1159 1065 1066 1160
f 1033 1162 1035 114
f 1162 1164 1036 1035
f 120 1059 1161 1034
f 1034 1161 1162 1033
f 1059 1060 1163 1161
f 1161 1163 1164 1162
f 1060 127 1062 1163
f 1163 1062 1061 1164
f 1030 1166 1059 120
f 1166 1168 1060 1059
f 119 1055 1165 1029
f 1029 1165 1166 1030
f 1055 1056 1167 1165
f 1165 1167 1168 1166
f 1056 126 1057 1167
f 1167 1057 1058 1168
f 1026 1170 1055 119
f 1170 1172 1056 1055
f 118 1051 1169 1025
f 1025 1169 1170 1026
f 1051 1052 1171 1169
f 1169 1171 1172 1170
f 1052 125 1053 1171
f 1171 1053 1054 1172
f 1022 1174 1051 118
f 1174 1176 1052 1051
f 117 1047 1173 1021
f 1021 1173 1174 1022
f 1047 1048 1175 1173
f 1173 1175 1176 1174
f 1048 124 1049 1175
f 1175 1049 1050 1176
f 1018 1178 1047 117
f 1178 1180 1048 1047
f 116 1043 1177 1017
f 1017 1177 1178 1018
f 1043 1044 1179 1177
f 1177 1179 1180 1178
f 1044 123 1045 1179
f 1179 1045 1046 1180
f 1014 1182 1043 116
f 1182 1184 1044 1043
f 115 1039 1181 1013
f 1013 1181 1182 1014
f 1039 1040 1183 1181
f 1181 1183 1184 1182
f 1040 122 1041 1183
f 1183 1041 1042 1184
f 1010 1186 1039 115
f 1186 1188 1040 1039
f 114 1035 1185 1009
f 1009 1185 1186 1010
f 1035 1036 1187 1185
f 1185 1187 1188 1186
f 1036 121 1037 1187
f 1187 1037 1038 1188
f 1005 1190 1007 107
f 1190 1192 1008 1007
f 113 1031 1189 1006
f 1006 1189 1190 1005
f 1031 1032 1191 1189
f 1189 1191 1192 1190
f 1032 120 1034 1191
f 1191 1034 1033 1192
f 1002 1194 1031 113
f 1194 1196 1032 1031
f 112 1027 1193 1001
f 1001 1193 1194 1002
f 1027 1028 1195 1193
f 1193 1195 1196 1194
f 1028 119 1029 1195
f 1195 1029 1030 1196
f 998 1198 1027 112
f 1198 1200 1028 1027
f 111 1023 1197 997
f 997 1197 1198 998
f 1023 1024 1199 1197
f 1197 1199 1200 1198
f 1024 118 1025 1199
f 1199 1025 1026 1200
f 994 1202 1023 111
f 1202 1204 1024 1023
f 110 1019 1201 993
f 993 1201 1202 994
f 1019 1020 1203 1201
f 1201 1203 1204 1202
f 1020 117 1021 1203
f 1203 1021 1022 1204
f 990 1206 1019 110
f 1206 1208 1020 1019
f 109 1015 1205 989
f 989 1205 1206 990
f 1015 1016 1207 1205
f 1205 1207 1208 1206
f 1016 116 1017 1207
f 1207 1017 1018 1208
f 986 1210 1015 109
f 1210 1212 1016 1015
f 108 1011 1209 985
f 985 1209 1210 986
f 1011 1012 1211 1209
f 1209 1211 1212 1210
f 1012 115 1013 1211
f 1211 1013 1014 1212
f 982 1214 1011 108
f 1214 1216 1012 1011
f 107 1007 1213 981
f 981 1213 1214 982
f 1007 1008 1215 1213
f 1213 1215 1216 1214
f 1008 114 1009 1215
f 1215 1009 1010 1216
f 977 1218 979 100
f 1218 1220 980 979
f 106 1003 1217 978
f 978 1217 1218 977
f 1003 1004 1219 1217
f 1217 1219 1220 1218
f 1004 113 1006 1219
f 1219 1006 1005 1220
f 974 1222 1003 106
f 1222 1224 1004 1003
f 105 999 1221 973
f 973 1221 1222 974
f 999 1000 1223 1221
f 1221 1223 1224 1222
f 1000 112 1001 1223
f 1223 1001 1002 1224
f 970 1226 999 105
f 1226 1228 1000 999
f 104 995 1225 969
f 969 1225 1226 970
f 995 996 1227 1225
f 1225 1227 1228 1226
f 996 111 997 1227
f 1227 997 998 1228
f 966 1230 995 104
f 1230 1232 996 995
f 103 991 1229 965
f 965 1229 1230 966
f 991 992 1231 1229
f 1229 1231 1232 1230
f 992 110 993 1231
f 1231 993 994 1232
f 962 1234 991 103
f 1234 1236 992 991
f 102 987 1233 961
f 961 1233 1234 962
f 987 988 1235 1233
f 1233 1235 1236 1234
f 988 109 989 1235
f 1235 989 990 1236
f 958 1238 987 102
f 1238 1240 988 987
f 101 983 1237 957
f 957 1237 1238 958
f 983 984 1239 1237
f 1237 1239 1240 1238
f 984 108 985 1239
f 1239 985 986 1240
f 954 1242 983 101
f 1242 1244 984 983
f 100 979 1241 953
f 953 1241 1242 954
f 979 980 1243 1241
f 1241 1243 1244 1242
f 980 107 981 1243
f 1243 981 982 1244
f 949 1246 951 93
f 1246 1248 952 951
f 99 975 1245 950
f 950 1245 1246 949
f 975 976 1247 1245
f 1245 1247 1248 1246
f 976 106 978 1247
f 1247 978 977 1248
f 946 1250 975 99
f 1250 1252 976 975
f 98 971 1249 945
f 945 1249 1250 946
f 971 972 1251 1249
f 1249 1251 1252 1250
f 972 105 973 1251
f 1251 973 974 1252
f 942 1254 971 98
f 1254 1256 972 971
f 97 967 1253 941
f 941 1253 1254 942
f 967 968 1255 1253
f 1253 1255 1256 1254
f 968 104 969 1255
f 1255 969 970 1256
f 938 1258 967 97
f 1258 1260 968 967
f 96 963 1257 937
f 937 1257 1258 938
f 963 964 1259 1257
f 1257 1259 1260 1258
f 964 103 965 1259
f 1259 965 966 1260
f 934 1262 963 96
f 1262 1264 964 963
f 95 959 1261 933
f 933 1261 1262 934
f 959 960 1263 1261
f 1261 1263 1264 1262
f 960 102 961 1263
f 1263 961 962 1264
f 930 1266 959 95
f 1266 1268 960 959
f 94 955 1265 929
f 929 1265 1266 930
f 955 956 1267 1265
f 1265 1267 1268 1266
f 956 101 957 1267
f 1267 957 958 1268
f 926 1270 955 94
f 1270 1272 956 955
f 93 951 1269 925
f 925 1269 1270 926
f 951 952 1271 1269
f 1269 1271 1272 1270
f 952 100 953 1271
f 1271 953 954 1272
f 921 1274 923 86
f 1274 1276 924 923
f 92 947 1273 922
f 922 1273 1274 921
f 947 948 1275 1273
f 1273 1275 1276 1274
f 948 99 950 1275
f 1275 950 949 1276
f 918 1278 947 92
f 1278 1280 948 947
f 91 943 1277 917
f 917 1277 1278 918
f 943 944 1279 1277
f 1277 1279 1280 1278
f 944 98 945 1279
f 1279 945 946 1280
f 914 1282 943 91
f 1282 1284 944 943
f 90 939 1281 913
f 913 1281 1282 914
f 939 940 1283 1281
f 1281 1283 1284 1282
f 940 97 941 1283
f 1283 941 942 1284
f 910 1286 939 90
f 1286 1288 940 939
f 89 935 1285 909
f 909 1285 1286 910
f 935 936 1287 1285
f 1285 1287 1288 1286
f 936 96 937 1287
f 1287 937 938 1288
f 906 1290 935 89
f 1290 1292 936 935
f 88 931 1289 905
f 905 1289 1290 906
f 931 932 1291 1289
f 1289 1291 1292 1290
f 932 95 933 1291
f 1291 933 934 1292
f 902 1294 931 88
f 1294 1296 932 931
f 87 927 1293 901
f 901 1293 1294 902
f 927 928 1295 1293
f 1293 1295 1296 1294
f 928 94 929 1295
f 1295 929 930 1296
f 898 1298 927 87
f 1298 1300 928 927
f 86 923 1297 897
f 897 1297 1298 898
f 923 924 1299 1297
f 1297 1299 1300 1298
f 924 93 925 1299
f 1299 925 926 1300
f 893 1302 895 79
f 1302 1304 896 895
f 85 919 1301 894
f 894 1301 1302 893
f 919 920 1303 1301
f 1301 1303 1304 1302
f 920 92 922 1303
f 1303 922 921 1304
f 890 1306 919 85
f 1306 1308 920 919
f 84 915 1305 889
f 889 1305 1306 890
f 915 916 1307 1305
f 1305 1307 1308 1306
f 916 91 917 1307
f 1307 917 918 1308
f 886 1310 915 84
f 1310 1312 916 915
f 83 911 1309 885
f 885 1309 1310 886
f 911 912 1311 1309
f 1309 1311 1312 1310
f 912 90 913 1311
f 1311 913 914 1312
f 882 1314 911 83
f 1314 1316 912 911
f 82 907 1313 881
f 881 1313 1314 882
f 907 908 1315 1313
f 1313 1315 1316 1314
f 908 89 909 1315
f 1315 909 910 1316
f 878 1318 907 82
f 1318 1320 908 907
f 81 903 1317 877
f 877 1317 1318 878
f 903 904 1319 1317
f 1317 1319 1320 1318
f 904 88 905 1319
f 1319 905 906 1320
f 874 1322 903 81
f 1322 1324 904 903
f 80 899 1321 873
f 873 1321 1322 874
f 899 900 1323 1321
f 1321 1323 1324 1322
f 900 87 901 1323
f 1323 901 902 1324
f 870 1326 899 80
f 1326 1328 900 899
f 79 895 1325 869
f 869 1325 1326 870
f 895 896 1327 1325
f 1325 1327 1328 1326
f 896 86 897 1327
f 1327 897 898 1328
f 865 1330 867 72
f 1330 1332 868 867
f 78 891 1329 866
f 866 1329 1330 865
f 891 892 1331 1329
f 1329 1331 1332 1330
f 892 85 894 1331
f 1331 894 893 1332
f 860 1334 891 78
f 1334 1336 892 891
f 77 887 1333 859
f 859 1333 1334 860
f 887 888 1335 1333
f 1333 1335 1336 1334
f 888 84 889 1335
f 1335 889 890 1336
f 854 1338 887 77
f 1338 1340 888 887
f 76 883 1337 853
f 853 1337 1338 854
f 883 884 1339 1337
f 1337 1339 1340 1338
f 884 83 885 1339
f 1339 885 886 1340
f 848 1342 883 76
f 1342 1344 884 883
f 75 879 1341 847
f 847 1341 1342 848
f 879 880 1343 1341
f 1341 1343 1344 1342
f 880 82 881 1343
f 1343 881 882 1344
f 842 1346 879 75
f 1346 1348 880 879
f 74 875 1345 841
f 841 1345 1346 842
f 875 876 1347 1345
f 1345 1347 1348 1346
f 876 81 877 1347
f 1347 877 878 1348
f 836 1350 875 74
f 1350 1352 876 875
f 73 871 1349 835
f 835 1349 1350 836
f 871 872 1351 1349
f 1349 1351 1352 1350
f 872 80 873 1351
f 1351 873 874 1352
f 830 1354 871 73
f 1354 1356 872 871
f 72 867 1353 829
f 829 1353 1354 830
f 867 868 1355 1353
f 1353 1355 1356 1354
f 868 79 869 1355
f 1355 869 870 1356
f 863 1358 827 65
f 1358 1360 828 827
f 71 861 1357 864
f 864 1357 1358 863
f 861 862 1359 1357
f 1357 1359 1360 1358
f 862 78 866 1359
f 1359 866 865 1360
f 858 1362 861 71
f 1362 1364 862 861
f 70 855 1361 857
f 857 1361 1362 858
f 855 856 1363 1361
f 1361 1363 1364 1362
f 856 77 859 1363
f 1363 859 860 1364
f 852 1366 855 70
f 1366 1368 856 855
f 69 849 1365 851
f 851 1365 1366 852
f 849 850 1367 1365
f 1365 1367 1368 1366
f 850 76 853 1367
f 1367 853 854 1368
f 846 1370 849 69
f 1370 1372 850 849
f 68 843 1369 845
f 845 1369 1370 846
f 843 844 1371 1369
f 1369 1371 1372 1370
f 844 75 847 1371
f 1371 847 848 1372
f 840 1374 843 68
f 1374 1376 844 843
f 67 837 1373 839
f 839 1373 1374 840
f 837 838 1375 1373
f 1373 1375 1376 1374
f 838 74 841 1375
f 1375 841 842 1376
f 834 1378 837 67
f 1378 1380 838 837
f 66 831 1377 833
f 833 1377 1378 834
f 831 832 1379 1377
f 1377 1379 1380 1378
f 832 73 835 1379
f 1379 835 836 1380
f 826 1382 831 66
f 1382 1384 832 831
f 65 827 1381 825
f 825 1381 1382 826
f 827 828 1383 1381
f 1381 1383 1384 1382
f 828 72 829 1383
f 1383 829 830 1384
