# Blender 5.2.0 LTS
# www.blender.org
o Сюзанна
v 0.282820 0.429361 -0.401039
v 0.188320 0.435571 -0.456359
v -0.170336 0.155678 -0.572189
v 0.136334 0.508710 -0.315084
v 0.190062 0.523043 -0.421130
v 0.379396 0.094228 -0.150463
v 0.422586 0.067713 -0.209899
v 0.360132 0.242960 -0.299542
v 0.364022 0.291229 -0.312315
v 0.314226 0.272610 -0.270232
v 0.178907 0.412295 -0.227369
v 0.272004 0.380249 -0.302924
v 0.075652 0.361683 -0.193292
v -0.034892 0.413077 -0.575498
v -0.016633 0.000000 -0.437059
v 0.238751 0.101099 -0.324123
v 0.381584 0.024723 -0.219732
v 0.221672 0.142111 -0.275911
v 0.305394 0.056486 -0.143743
v 0.240066 0.212508 -0.272009
v 0.032694 0.404034 -0.285937
v -0.131516 0.386302 -0.370148
v -0.166424 0.201713 -0.341824
v 0.032623 0.127082 -0.279864
v -0.191956 0.220568 -0.101254
v -0.247349 0.332147 -0.185572
v -0.075927 0.215889 -0.239852
v -0.063421 0.152813 -0.200946
v -0.160813 0.276032 -0.266573
v 0.290682 0.423980 -0.588261
v 0.239061 0.496145 -0.507853
v 0.452895 0.053880 -0.280547
v 0.365675 0.244367 -0.361290
v 0.360204 0.312771 -0.548243
v 0.343052 0.341246 -0.428672
v 0.318198 0.228536 -0.622569
v 0.278021 0.111178 -0.375643
v 0.408292 -0.000001 -0.325861
v 0.308665 0.174850 -0.393421
v 0.231141 0.295095 -0.637164
v 0.069380 0.276018 -0.725712
v 0.027123 0.095464 -0.684379
v 0.167370 0.053112 -0.518351
v 0.209836 -0.000000 -0.812380
v 0.139744 0.119649 -0.870682
v 0.161719 0.085431 -0.660457
v 0.184025 0.016975 -0.638896
v 0.108682 0.128090 -0.743549
v -1.000000 -0.000000 1.000000
v -1.000000 2.000000 1.000000
v -1.000000 0.000000 -1.000000
v -1.000000 2.000000 -1.000000
v 1.000000 0.000000 1.000000
v 1.000000 2.000000 1.000000
v 1.000000 0.000000 -1.000000
v 1.000000 2.000000 -1.000000
v -0.171707 0.000008 0.400641
v -0.171708 0.300007 0.400634
v -0.248648 0.000001 0.110675
v -0.248648 0.300000 0.110668
v 0.118258 0.000007 0.323701
v 0.118258 0.300006 0.323694
v 0.041318 -0.000001 0.033735
v 0.041317 0.299999 0.033728
v -0.131696 0.327783 0.617349
v -0.065499 0.382386 0.635273
v 0.016699 0.380467 0.604864
v 0.053000 0.323471 0.549021
v 0.016069 0.254318 0.509793
v -0.066284 0.225080 0.516722
v -0.132045 0.257776 0.564588
v -0.017000 0.193516 0.746068
v 0.036860 0.262562 0.750145
v 0.091332 0.293098 0.688623
v 0.105400 0.262129 0.607828
v 0.068470 0.192976 0.568601
v 0.008350 0.137712 0.600480
v -0.029688 0.137953 0.679461
v 0.170790 0.083186 0.763775
v 0.204447 0.164101 0.765948
v 0.213529 0.221305 0.700145
v 0.191195 0.211723 0.615918
v 0.154265 0.142569 0.576690
v 0.130547 0.065919 0.612003
v 0.137901 0.039490 0.695263
v 0.359945 0.038934 0.663706
v 0.373254 0.124609 0.676643
v 0.336613 0.192510 0.635029
v 0.277614 0.191506 0.570199
v 0.240683 0.122352 0.530972
v 0.253631 0.037124 0.546887
v 0.306707 -0.000001 0.605959
v 0.478213 0.077664 0.484083
v 0.478799 0.159173 0.516344
v 0.413571 0.217712 0.518147
v 0.331647 0.209200 0.488136
v 0.294716 0.140047 0.448909
v 0.330590 0.062326 0.430005
v 0.412253 0.034563 0.445659
v 0.480421 0.184582 0.293518
v 0.480770 0.254589 0.346278
v 0.415008 0.287285 0.394145
v 0.332655 0.258047 0.401073
v 0.295725 0.188894 0.361846
v 0.332026 0.131898 0.306002
v 0.414224 0.129979 0.275594
v 0.365725 0.318849 0.164799
v 0.378412 0.374413 0.231406
v 0.340374 0.374653 0.310386
v 0.280254 0.319389 0.342266
v 0.243324 0.250236 0.303039
v 0.257392 0.219267 0.222244
v 0.311866 0.249803 0.160721
v 0.177934 0.429180 0.147092
v 0.210824 0.472875 0.215604
v 0.218178 0.446446 0.298864
v 0.194460 0.369796 0.334176
v 0.157529 0.300642 0.294949
v 0.135196 0.291060 0.210722
v 0.144277 0.348264 0.144919
v -0.011220 0.473431 0.247161
v 0.042017 0.512366 0.304908
v 0.095093 0.475241 0.363980
v 0.108041 0.390013 0.379894
v 0.071111 0.320859 0.340667
v 0.012111 0.319855 0.275838
v -0.024530 0.387756 0.234224
v -0.129488 0.434701 0.426783
v -0.063529 0.477802 0.465207
v 0.018135 0.450039 0.480862
v 0.054008 0.372318 0.461958
v 0.017078 0.303165 0.422730
v -0.064847 0.294653 0.392719
v -0.130075 0.353192 0.394522
s 0
f 17 6 7
f 17 19 6
f 8 7 6
f 8 6 10
f 8 10 9
f 12 9 1
f 2 1 5
f 22 2 14
f 3 22 14
f 23 15 3
f 16 24 18
f 17 38 19
f 16 18 19
f 15 24 16
f 15 23 24
f 3 23 22
f 28 24 27
f 24 23 29
f 28 27 25
f 28 24 29
f 27 22 29
f 19 18 20
f 19 20 6
f 10 6 20
f 25 28 29
f 25 29 26
f 18 24 20
f 24 13 20
f 20 13 11
f 9 10 12
f 12 10 11
f 20 11 10
f 4 2 5
f 5 1 4
f 12 1 4
f 12 11 4
f 13 21 4
f 13 4 11
f 13 24 27
f 29 26 27
f 25 26 27
f 22 23 29
f 13 27 21
f 4 21 2
f 2 22 21
f 27 21 22
f 17 32 7
f 17 38 32
f 8 7 32
f 8 32 33
f 8 33 9
f 35 9 1
f 2 1 31
f 41 2 14
f 3 41 14
f 42 15 3
f 37 16 43
f 19 38 16
f 16 37 38
f 16 43 15
f 15 42 43
f 3 42 41
f 47 43 46
f 43 42 48
f 47 46 44
f 47 43 48
f 46 41 48
f 38 37 39
f 38 39 32
f 33 32 39
f 44 47 48
f 44 48 45
f 37 43 39
f 43 36 39
f 39 36 34
f 9 33 35
f 35 33 34
f 39 34 33
f 30 2 31
f 31 1 30
f 35 1 30
f 35 34 30
f 36 30 34
f 36 40 30
f 36 43 46
f 48 45 46
f 44 45 46
f 41 42 48
f 36 46 40
f 30 40 2
f 2 41 40
f 46 40 41
f 49 50 52 51
f 51 55 53 49
f 56 52 50 54
f 57 58 60 59
f 59 60 64 63
f 63 64 62 61
f 61 62 58 57
f 59 63 61 57
f 64 60 58 62
f 65 72 73 66
f 66 73 74 67
f 67 74 75 68
f 68 75 76 69
f 69 76 77 70
f 70 77 78 71
f 71 78 72 65
f 72 79 80 73
f 73 80 81 74
f 74 81 82 75
f 75 82 83 76
f 76 83 84 77
f 77 84 85 78
f 78 85 79 72
f 79 86 87 80
f 80 87 88 81
f 81 88 89 82
f 82 89 90 83
f 83 90 91 84
f 84 91 92 85
f 85 92 86 79
f 86 93 94 87
f 87 94 95 88
f 88 95 96 89
f 89 96 97 90
f 90 97 98 91
f 91 98 99 92
f 92 99 93 86
f 93 100 101 94
f 94 101 102 95
f 95 102 103 96
f 96 103 104 97
f 97 104 105 98
f 98 105 106 99
f 99 106 100 93
f 100 107 108 101
f 101 108 109 102
f 102 109 110 103
f 103 110 111 104
f 104 111 112 105
f 105 112 113 106
f 106 113 107 100
f 107 114 115 108
f 108 115 116 109
f 109 116 117 110
f 110 117 118 111
f 111 118 119 112
f 112 119 120 113
f 113 120 114 107
f 114 121 122 115
f 115 122 123 116
f 116 123 124 117
f 117 124 125 118
f 118 125 126 119
f 119 126 127 120
f 120 127 121 114
f 121 128 129 122
f 122 129 130 123
f 123 130 131 124
f 124 131 132 125
f 125 132 133 126
f 126 133 134 127
f 127 134 128 121
f 128 65 66 129
f 129 66 67 130
f 130 67 68 131
f 131 68 69 132
f 132 69 70 133
f 133 70 71 134
f 134 71 65 128
