# Blender 5.2.0 LTS
# www.blender.org
o Сюзанна.001
v 0.000000 0.249480 -0.506641
v 0.000000 0.424480 -0.306641
v 0.000000 0.418230 0.830859
v 0.393750 0.449480 -0.400391
v 0.125000 0.543230 -0.456641
v 0.187500 -0.763020 -0.356641
v 0.000000 -0.788020 -0.362891
v 0.000000 -0.294270 -0.444141
v 0.000000 -0.194270 -0.512891
v 0.131250 -0.225520 -0.419141
v 0.462500 0.124480 -0.394141
v 0.181250 0.055730 -0.475391
v 0.618750 0.099480 -0.150391
v 0.000000 0.755730 0.212109
v 0.000000 -0.188020 0.687109
v 0.000000 -0.400520 -0.000391
v 0.000000 -0.813020 -0.219141
v 0.143750 -0.363020 -0.056641
v 0.262500 -0.763020 -0.169141
v 0.175000 -0.256770 -0.194141
v 0.506250 0.330730 -0.075391
v 0.512500 0.568230 0.305859
v 0.493750 0.230730 0.618359
v 0.343750 -0.188020 0.318359
v 1.025000 0.011980 0.493359
v 0.987500 0.374480 0.487109
v 0.606250 0.043230 0.368359
v 0.631250 -0.131770 0.412109
v 0.687500 0.274480 0.455859
v -0.393750 0.449480 -0.400391
v -0.125000 0.543230 -0.456641
v -0.187500 -0.763020 -0.356641
v -0.131250 -0.225520 -0.419141
v -0.462500 0.124480 -0.394141
v -0.181250 0.055730 -0.475391
v -0.618750 0.099480 -0.150391
v -0.143750 -0.363020 -0.056641
v -0.262500 -0.763020 -0.169141
v -0.175000 -0.256770 -0.194141
v -0.506250 0.330730 -0.075391
v -0.512500 0.568230 0.305859
v -0.493750 0.230730 0.618359
v -0.343750 -0.188020 0.318359
v -1.025000 0.011980 0.493359
v -0.987500 0.374480 0.487109
v -0.606250 0.043230 0.368359
v -0.631250 -0.131770 0.412109
v -0.687500 0.274480 0.455859
s 0
f 17 6 7
f 17 19 6
f 8 7 6
f 8 6 10
f 8 10 9
f 12 9 1
f 2 1 5
f 22 2 14
f 3 22 14
f 23 15 3
f 16 24 18
f 17 38 19
f 16 18 19
f 15 24 16
f 15 23 24
f 3 23 22
f 28 24 27
f 24 23 29
f 28 27 25
f 28 24 29
f 27 22 29
f 19 18 20
f 19 20 6
f 10 6 20
f 25 28 29
f 25 29 26
f 18 24 20
f 24 13 20
f 20 13 11
f 9 10 12
f 12 10 11
f 20 11 10
f 4 2 5
f 5 1 4
f 12 1 4
f 12 11 4
f 13 21 4
f 13 4 11
f 13 24 27
f 29 26 27
f 25 26 27
f 22 23 29
f 13 27 21
f 4 21 2
f 2 22 21
f 27 21 22
f 17 32 7
f 17 38 32
f 8 7 32
f 8 32 33
f 8 33 9
f 35 9 1
f 2 1 31
f 41 2 14
f 3 41 14
f 42 15 3
f 37 16 43
f 19 38 16
f 16 37 38
f 16 43 15
f 15 42 43
f 3 42 41
f 47 43 46
f 43 42 48
f 47 46 44
f 47 43 48
f 46 41 48
f 38 37 39
f 38 39 32
f 33 32 39
f 44 47 48
f 44 48 45
f 37 43 39
f 43 36 39
f 39 36 34
f 9 33 35
f 35 33 34
f 39 34 33
f 30 2 31
f 31 1 30
f 35 1 30
f 35 34 30
f 36 30 34
f 36 40 30
f 36 43 46
f 48 45 46
f 44 45 46
f 41 42 48
f 36 46 40
f 30 40 2
f 2 41 40
f 46 40 41
